<?xml version="1.0" encoding="UTF-8"?>
<!DOCTYPE svg PUBLIC "-//W3C//DTD SVG 1.1//EN"
    "http://www.w3.org/Graphics/SVG/1.1/DTD/svg11.dtd" >
<svg contentScriptType="text/ecmascript" width="669.0"
     xmlns:xlink="http://www.w3.org/1999/xlink" zoomAndPan="magnify"
     contentStyleType="text/css"
     viewBox="-276.000000 -370.000000 669.000000 562.000000" height="562.0"
     preserveAspectRatio="xMidYMid meet" xmlns="http://www.w3.org/2000/svg"
     version="1.1">
    <g id="edges">
        <path fill="none" stroke-width="1.0"
              d="M 336.290253,-359.968079 C 343.886475,-365.781525 364.000916,-363.107391 369.814362,-355.511169"
              class="id_0 id_1" stroke-opacity="1.0" stroke="#2200ff"/>
        <path fill="none" stroke-width="1.0"
              d="M 336.290253,-359.968079 C 352.388885,-362.255127 379.967377,-341.537720 382.254425,-325.439087"
              class="id_0 id_2" stroke-opacity="1.0" stroke="#2200ff"/>
        <path fill="none" stroke-width="1.0"
              d="M 336.290253,-359.968079 C 335.061371,-336.422546 297.899689,-302.947510 274.354156,-304.176392"
              class="id_0 id_3" stroke-opacity="1.0" stroke="#2200ff"/>
        <path fill="none" stroke-width="1.0"
              d="M 336.290253,-359.968079 C 345.854218,-347.877319 342.063965,-315.395203 329.973206,-305.831238"
              class="id_0 id_4" stroke-opacity="1.0" stroke="#2200ff"/>
        <path fill="none" stroke-width="1.0"
              d="M 336.290253,-359.968079 C 360.097748,-344.735718 372.960449,-286.175964 357.728088,-262.368469"
              class="id_0 id_5" stroke-opacity="1.0" stroke="#2200ff"/>
        <path fill="none" stroke-width="1.0"
              d="M 369.814362,-355.511169 C 378.316772,-351.984772 385.780823,-333.941498 382.254425,-325.439087"
              class="id_1 id_2" stroke-opacity="1.0" stroke="#2200ff"/>
        <path fill="none" stroke-width="1.0"
              d="M 369.814362,-355.511169 C 360.989288,-326.152161 303.713165,-295.351318 274.354156,-304.176392"
              class="id_1 id_3" stroke-opacity="1.0" stroke="#2200ff"/>
        <path fill="none" stroke-width="1.0"
              d="M 369.814362,-355.511169 C 371.782104,-337.606964 347.877411,-307.798981 329.973206,-305.831238"
              class="id_1 id_4" stroke-opacity="1.0" stroke="#2200ff"/>
        <path fill="none" stroke-width="1.0"
              d="M 369.814362,-355.511169 C 386.025635,-334.465363 378.773895,-278.579742 357.728088,-262.368469"
              class="id_1 id_5" stroke-opacity="1.0" stroke="#2200ff"/>
        <path fill="none" stroke-width="1.0"
              d="M 382.254425,-325.439087 C 364.926910,-299.606506 300.186737,-286.848877 274.354156,-304.176392"
              class="id_2 id_3" stroke-opacity="1.0" stroke="#2200ff"/>
        <path fill="none" stroke-width="1.0"
              d="M 382.254425,-325.439087 C 375.719757,-311.061279 344.351013,-299.296570 329.973206,-305.831238"
              class="id_2 id_4" stroke-opacity="1.0" stroke="#2200ff"/>
        <path fill="none" stroke-width="1.0"
              d="M 382.254425,-325.439087 C 389.963287,-307.919678 375.247498,-270.077332 357.728088,-262.368469"
              class="id_2 id_5" stroke-opacity="1.0" stroke="#2200ff"/>
        <path fill="none" stroke-width="1.0"
              d="M 274.354156,-304.176392 C 285.147003,-315.631165 318.518433,-316.624084 329.973206,-305.831238"
              class="id_3 id_4" stroke-opacity="1.0" stroke="#2200ff"/>
        <path fill="none" stroke-width="1.0"
              d="M 274.354156,-304.176392 C 270.465607,-251.488968 185.601700,-178.290680 132.914291,-182.179230"
              class="id_3 id_7" stroke-opacity="1.0" stroke="#2200ff"/>
        <path fill="none" stroke-width="1.0"
              d="M 329.973206,-305.831238 C 341.485107,-272.548706 308.829193,-205.357025 275.546661,-193.845108"
              class="id_4 id_6" stroke-opacity="1.0" stroke="#2200ff"/>
        <path fill="none" stroke-width="1.0"
              d="M 357.728088,-262.368469 C 354.996490,-232.227524 305.687622,-191.113495 275.546661,-193.845108"
              class="id_5 id_6" stroke-opacity="1.0" stroke="#2200ff"/>
        <path fill="none" stroke-width="1.0"
              d="M 357.728088,-262.368469 C 372.368286,-231.389603 347.860321,-162.960983 316.881439,-148.320770"
              class="id_5 id_8" stroke-opacity="1.0" stroke="#2200ff"/>
        <path fill="none" stroke-width="1.0"
              d="M 275.546661,-193.845108 C 292.918488,-193.007187 317.719330,-165.692596 316.881439,-148.320770"
              class="id_6 id_8" stroke-opacity="1.0" stroke="#2200ff"/>
        <path fill="none" stroke-width="1.0"
              d="M 275.546661,-193.845108 C 263.756012,-147.707397 176.863434,-96.186806 130.725723,-107.977463"
              class="id_6 id_9" stroke-opacity="1.0" stroke="#2200ff"/>
        <path fill="none" stroke-width="1.0"
              d="M 275.546661,-193.845108 C 298.414520,-174.443741 303.614319,-111.039871 284.212952,-88.171982"
              class="id_6 id_10" stroke-opacity="1.0" stroke="#2200ff"/>
        <path fill="none" stroke-width="1.0"
              d="M 132.914291,-182.179230 C 125.378365,-141.160233 52.545982,-90.935623 11.526984,-98.471550"
              class="id_7 id_17" stroke-opacity="1.0" stroke="#2200ff"/>
        <path fill="none" stroke-width="1.0"
              d="M 132.914291,-182.179230 C 115.143822,-144.631805 32.166985,-114.966377 -5.380434,-132.736847"
              class="id_7 id_18" stroke-opacity="1.0" stroke="#2200ff"/>
        <path fill="none" stroke-width="1.0"
              d="M 132.914291,-182.179230 C 159.262756,-175.096054 188.160660,-124.948608 181.077484,-98.600159"
              class="id_7 id_11" stroke-opacity="1.0" stroke="#2200ff"/>
        <path fill="none" stroke-width="1.0"
              d="M 132.914291,-182.179230 C 165.259949,-188.082550 222.633392,-148.419098 228.536728,-116.073463"
              class="id_7 id_13" stroke-opacity="1.0" stroke="#2200ff"/>
        <path fill="none" stroke-width="1.0"
              d="M 316.881439,-148.320770 C 322.377502,-129.757324 302.776398,-93.668037 284.212952,-88.171982"
              class="id_8 id_10" stroke-opacity="1.0" stroke="#2200ff"/>
        <path fill="none" stroke-width="1.0"
              d="M 316.881439,-148.320770 C 316.973206,-116.935120 270.032379,-69.718971 238.646729,-69.627197"
              class="id_8 id_12" stroke-opacity="1.0" stroke="#2200ff"/>
        <path fill="none" stroke-width="1.0"
              d="M 316.881439,-148.320770 C 305.661957,-124.202362 252.655136,-104.853981 228.536728,-116.073463"
              class="id_8 id_13" stroke-opacity="1.0" stroke="#2200ff"/>
        <path fill="none" stroke-width="1.0"
              d="M 130.725723,-107.977463 C 116.432076,-67.054008 33.606422,-27.109306 -7.317031,-41.402954"
              class="id_9 id_16" stroke-opacity="1.0" stroke="#2200ff"/>
        <path fill="none" stroke-width="1.0"
              d="M 130.725723,-107.977463 C 108.787155,-82.236526 37.267918,-76.532990 11.526984,-98.471550"
              class="id_9 id_17" stroke-opacity="1.0" stroke="#2200ff"/>
        <path fill="none" stroke-width="1.0"
              d="M 130.725723,-107.977463 C 142.671539,-116.172356 172.882584,-110.545967 181.077484,-98.600159"
              class="id_9 id_11" stroke-opacity="1.0" stroke="#2200ff"/>
        <path fill="none" stroke-width="1.0"
              d="M 130.725723,-107.977463 C 159.979980,-121.891617 224.732590,-98.881454 238.646729,-69.627197"
              class="id_9 id_12" stroke-opacity="1.0" stroke="#2200ff"/>
        <path fill="none" stroke-width="1.0"
              d="M 284.212952,-88.171982 C 278.808655,-75.349785 251.468933,-64.222908 238.646729,-69.627197"
              class="id_10 id_12" stroke-opacity="1.0" stroke="#2200ff"/>
        <path fill="none" stroke-width="1.0"
              d="M 284.212952,-88.171982 C 267.497406,-82.617035 234.091675,-99.357918 228.536728,-116.073463"
              class="id_10 id_13" stroke-opacity="1.0" stroke="#2200ff"/>
        <path fill="none" stroke-width="1.0"
              d="M 284.212952,-88.171982 C 278.592651,-52.159035 216.142761,-6.570080 180.129807,-12.190391"
              class="id_10 id_14" stroke-opacity="1.0" stroke="#2200ff"/>
        <path fill="none" stroke-width="1.0"
              d="M 181.077484,-98.600159 C 198.385925,-104.319412 232.927460,-86.935638 238.646729,-69.627197"
              class="id_11 id_12" stroke-opacity="1.0" stroke="#2200ff"/>
        <path fill="none" stroke-width="1.0"
              d="M 181.077484,-98.600159 C 187.074677,-111.586670 215.550217,-122.070656 228.536728,-116.073463"
              class="id_11 id_13" stroke-opacity="1.0" stroke="#2200ff"/>
        <path fill="none" stroke-width="1.0"
              d="M 181.077484,-98.600159 C 198.169907,-81.128670 197.601288,-29.282808 180.129807,-12.190391"
              class="id_11 id_14" stroke-opacity="1.0" stroke="#2200ff"/>
        <path fill="none" stroke-width="1.0"
              d="M 238.646729,-69.627197 C 238.430710,-46.436451 203.320557,-11.974368 180.129807,-12.190391"
              class="id_12 id_14" stroke-opacity="1.0" stroke="#2200ff"/>
        <path fill="none" stroke-width="1.0"
              d="M 228.536728,-116.073463 C 239.631958,-85.615471 210.587799,-23.285618 180.129807,-12.190391"
              class="id_13 id_14" stroke-opacity="1.0" stroke="#2200ff"/>
        <path fill="none" stroke-width="1.0"
              d="M 180.129807,-12.190391 C 172.130051,40.560337 81.004349,107.686813 28.253620,99.687065"
              class="id_14 id_15" stroke-opacity="1.0" stroke="#2200ff"/>
        <path fill="none" stroke-width="1.0"
              d="M 28.253620,99.687065 C -6.355278,102.880775 -63.059181,55.758003 -66.252892,21.149103"
              class="id_15 id_19" stroke-opacity="1.0" stroke="#2200ff"/>
        <path fill="none" stroke-width="1.0"
              d="M 28.253620,99.687065 C 12.265083,126.595078 -52.079739,142.974304 -78.987755,126.985764"
              class="id_15 id_27" stroke-opacity="1.0" stroke="#1938ff"/>
        <path fill="none" stroke-width="1.0"
              d="M 28.253620,99.687065 C 34.855301,123.662567 8.794570,169.528336 -15.180930,176.130020"
              class="id_15 id_28" stroke-opacity="1.0" stroke="#1938ff"/>
        <path fill="none" stroke-width="1.0"
              d="M 28.253620,99.687065 C 28.999577,131.485550 -17.579206,180.302200 -49.377689,181.048157"
              class="id_15 id_29" stroke-opacity="1.0" stroke="#1938ff"/>
        <path fill="none" stroke-width="1.0"
              d="M -7.317031,-41.402954 C -25.196491,-60.057049 -24.034533,-114.857391 -5.380434,-132.736847"
              class="id_16 id_18" stroke-opacity="1.0" stroke="#2200ff"/>
        <path fill="none" stroke-width="1.0"
              d="M -7.317031,-41.402954 C -31.354820,-32.280388 -81.095360,-54.653214 -90.217926,-78.691002"
              class="id_16 id_21" stroke-opacity="1.0" stroke="#2200ff"/>
        <path fill="none" stroke-width="1.0"
              d="M -7.317031,-41.402954 C -23.712881,-19.410309 -81.295624,-11.015112 -103.288277,-27.410961"
              class="id_16 id_23" stroke-opacity="1.0" stroke="#2200ff"/>
        <path fill="none" stroke-width="1.0"
              d="M -7.317031,-41.402954 C 11.023942,-5.846050 -14.799955,75.000763 -50.356861,93.341736"
              class="id_16 id_25" stroke-opacity="1.0" stroke="#1938ff"/>
        <path fill="none" stroke-width="1.0"
              d="M 11.526984,-98.471550 C 1.292440,-101.943123 -8.852011,-122.502304 -5.380434,-132.736847"
              class="id_17 id_18" stroke-opacity="1.0" stroke="#2200ff"/>
        <path fill="none" stroke-width="1.0"
              d="M 11.526984,-98.471550 C 0.440485,-50.746197 -87.777298,4.212084 -135.502655,-6.874417"
              class="id_17 id_20" stroke-opacity="1.0" stroke="#2200ff"/>
        <path fill="none" stroke-width="1.0"
              d="M 11.526984,-98.471550 C 5.892884,-73.755112 -39.632912,-45.131615 -64.349350,-50.765717"
              class="id_17 id_22" stroke-opacity="1.0" stroke="#2200ff"/>
        <path fill="none" stroke-width="1.0"
              d="M -5.380434,-132.736847 C -11.538764,-104.960182 -62.441257,-72.532669 -90.217926,-78.691002"
              class="id_18 id_21" stroke-opacity="1.0" stroke="#2200ff"/>
        <path fill="none" stroke-width="1.0"
              d="M -5.380434,-132.736847 C -0.779991,-104.548836 -36.161339,-55.366158 -64.349350,-50.765717"
              class="id_18 id_22" stroke-opacity="1.0" stroke="#2200ff"/>
        <path fill="none" stroke-width="1.0"
              d="M -66.252892,21.149103 C -91.013916,5.974091 -105.392937,-53.929977 -90.217926,-78.691002"
              class="id_19 id_21" stroke-opacity="1.0" stroke="#2200ff"/>
        <path fill="none" stroke-width="1.0"
              d="M -66.252892,21.149103 C -80.255150,6.385431 -79.113022,-36.763458 -64.349350,-50.765717"
              class="id_19 id_22" stroke-opacity="1.0" stroke="#2200ff"/>
        <path fill="none" stroke-width="1.0"
              d="M -66.252892,21.149103 C -83.371979,18.844168 -105.593216,-10.291870 -103.288277,-27.410961"
              class="id_19 id_23" stroke-opacity="1.0" stroke="#2200ff"/>
        <path fill="none" stroke-width="1.0"
              d="M -66.252892,21.149103 C -74.989143,35.492546 -109.608688,43.903328 -123.952133,35.167076"
              class="id_19 id_24" stroke-opacity="1.0" stroke="#2200ff"/>
        <path fill="none" stroke-width="1.0"
              d="M -135.502655,-6.874417 C -140.809021,-30.294682 -113.638191,-73.384628 -90.217926,-78.691002"
              class="id_20 id_21" stroke-opacity="1.0" stroke="#2200ff"/>
        <path fill="none" stroke-width="1.0"
              d="M -135.502655,-6.874417 C -124.784248,-0.776222 -117.853935,24.448673 -123.952133,35.167076"
              class="id_20 id_24" stroke-opacity="1.0" stroke="#2200ff"/>
        <path fill="none" stroke-width="1.0"
              d="M -135.502655,-6.874417 C -159.748154,21.066906 -238.028366,26.610647 -265.969696,2.365152"
              class="id_20 id_26" stroke-opacity="1.0" stroke="#117fa3"/>
        <path fill="none" stroke-width="1.0"
              d="M -135.502655,-6.874417 C -97.427635,8.594643 -63.518692,88.910744 -78.987755,126.985764"
              class="id_20 id_27" stroke-opacity="1.0" stroke="#1938ff"/>
        <path fill="none" stroke-width="1.0"
              d="M -90.217926,-78.691002 C -82.575981,-65.820923 -90.418198,-35.052898 -103.288277,-27.410961"
              class="id_21 id_23" stroke-opacity="1.0" stroke="#2200ff"/>
        <path fill="none" stroke-width="1.0"
              d="M -64.349350,-50.765717 C -67.466187,-38.306980 -90.829536,-24.294128 -103.288277,-27.410961"
              class="id_22 id_23" stroke-opacity="1.0" stroke="#2200ff"/>
        <path fill="none" stroke-width="1.0"
              d="M -64.349350,-50.765717 C -59.083347,-21.658604 -94.845016,29.901073 -123.952133,35.167076"
              class="id_22 id_24" stroke-opacity="1.0" stroke="#2200ff"/>
        <path fill="none" stroke-width="1.0"
              d="M -103.288277,-27.410961 C -94.905441,-10.762582 -107.303749,26.784241 -123.952133,35.167076"
              class="id_23 id_24" stroke-opacity="1.0" stroke="#2200ff"/>
        <path fill="none" stroke-width="1.0"
              d="M -123.952133,35.167076 C -97.598145,32.082954 -53.440979,66.987747 -50.356861,93.341736"
              class="id_24 id_25" stroke-opacity="1.0" stroke="#1938ff"/>
        <path fill="none" stroke-width="1.0"
              d="M -50.356861,93.341736 C -26.764017,102.864204 -5.658459,152.537170 -15.180930,176.130020"
              class="id_25 id_28" stroke-opacity="1.0" stroke="#1070ff"/>
        <path fill="none" stroke-width="1.0"
              d="M -50.356861,93.341736 C -32.619740,110.687195 -32.032238,163.311035 -49.377689,181.048157"
              class="id_25 id_29" stroke-opacity="1.0" stroke="#1070ff"/>
        <path fill="none" stroke-width="1.0"
              d="M -78.987755,126.985764 C -56.397537,124.053253 -18.113443,153.539795 -15.180930,176.130020"
              class="id_27 id_28" stroke-opacity="1.0" stroke="#1070ff"/>
        <path fill="none" stroke-width="1.0"
              d="M -78.987755,126.985764 C -62.253265,131.876236 -44.487221,164.313660 -49.377689,181.048157"
              class="id_27 id_29" stroke-opacity="1.0" stroke="#1070ff"/>
        <path fill="none" stroke-width="1.0"
              d="M -15.180930,176.130020 C -21.036655,183.953003 -41.554710,186.903885 -49.377689,181.048157"
              class="id_28 id_29" stroke-opacity="1.0" stroke="#1070ff"/>
    </g>
    <g id="nodes">
        <circle fill-opacity="1.0" fill="#2200ff" r="10.0" cx="336.29025"
                class="id_0" cy="-359.96808" stroke="#000000"
                stroke-opacity="1.0" stroke-width="1.0"/>
        <circle fill-opacity="1.0" fill="#2200ff" r="10.0" cx="369.81436"
                class="id_1" cy="-355.51117" stroke="#000000"
                stroke-opacity="1.0" stroke-width="1.0"/>
        <circle fill-opacity="1.0" fill="#2200ff" r="10.0" cx="382.25443"
                class="id_2" cy="-325.4391" stroke="#000000"
                stroke-opacity="1.0" stroke-width="1.0"/>
        <circle fill-opacity="1.0" fill="#2200ff" r="10.0" cx="274.35416"
                class="id_3" cy="-304.1764" stroke="#000000"
                stroke-opacity="1.0" stroke-width="1.0"/>
        <circle fill-opacity="1.0" fill="#2200ff" r="10.0" cx="329.9732"
                class="id_4" cy="-305.83124" stroke="#000000"
                stroke-opacity="1.0" stroke-width="1.0"/>
        <circle fill-opacity="1.0" fill="#2200ff" r="10.0" cx="357.7281"
                class="id_5" cy="-262.36847" stroke="#000000"
                stroke-opacity="1.0" stroke-width="1.0"/>
        <circle fill-opacity="1.0" fill="#2200ff" r="10.0" cx="275.54666"
                class="id_6" cy="-193.84511" stroke="#000000"
                stroke-opacity="1.0" stroke-width="1.0"/>
        <circle fill-opacity="1.0" fill="#2200ff" r="10.0" cx="132.91429"
                class="id_7" cy="-182.17923" stroke="#000000"
                stroke-opacity="1.0" stroke-width="1.0"/>
        <circle fill-opacity="1.0" fill="#2200ff" r="10.0" cx="316.88144"
                class="id_8" cy="-148.32077" stroke="#000000"
                stroke-opacity="1.0" stroke-width="1.0"/>
        <circle fill-opacity="1.0" fill="#2200ff" r="10.0" cx="130.72572"
                class="id_9" cy="-107.97746" stroke="#000000"
                stroke-opacity="1.0" stroke-width="1.0"/>
        <circle fill-opacity="1.0" fill="#2200ff" r="10.0" cx="284.21295"
                class="id_10" cy="-88.17198" stroke="#000000"
                stroke-opacity="1.0" stroke-width="1.0"/>
        <circle fill-opacity="1.0" fill="#2200ff" r="10.0" cx="181.07748"
                class="id_11" cy="-98.60016" stroke="#000000"
                stroke-opacity="1.0" stroke-width="1.0"/>
        <circle fill-opacity="1.0" fill="#2200ff" r="10.0" cx="238.64673"
                class="id_12" cy="-69.6272" stroke="#000000"
                stroke-opacity="1.0" stroke-width="1.0"/>
        <circle fill-opacity="1.0" fill="#2200ff" r="10.0" cx="228.53673"
                class="id_13" cy="-116.07346" stroke="#000000"
                stroke-opacity="1.0" stroke-width="1.0"/>
        <circle fill-opacity="1.0" fill="#2200ff" r="10.0" cx="180.1298"
                class="id_14" cy="-12.190391" stroke="#000000"
                stroke-opacity="1.0" stroke-width="1.0"/>
        <circle fill-opacity="1.0" fill="#2200ff" r="10.0" cx="28.25362"
                class="id_15" cy="99.687065" stroke="#000000"
                stroke-opacity="1.0" stroke-width="1.0"/>
        <circle fill-opacity="1.0" fill="#2200ff" r="10.0" cx="-7.317031"
                class="id_16" cy="-41.402954" stroke="#000000"
                stroke-opacity="1.0" stroke-width="1.0"/>
        <circle fill-opacity="1.0" fill="#2200ff" r="10.0" cx="11.526984"
                class="id_17" cy="-98.47155" stroke="#000000"
                stroke-opacity="1.0" stroke-width="1.0"/>
        <circle fill-opacity="1.0" fill="#2200ff" r="10.0" cx="-5.380434"
                class="id_18" cy="-132.73685" stroke="#000000"
                stroke-opacity="1.0" stroke-width="1.0"/>
        <circle fill-opacity="1.0" fill="#2200ff" r="10.0" cx="-66.25289"
                class="id_19" cy="21.149103" stroke="#000000"
                stroke-opacity="1.0" stroke-width="1.0"/>
        <circle fill-opacity="1.0" fill="#2200ff" r="10.0" cx="-135.50266"
                class="id_20" cy="-6.874417" stroke="#000000"
                stroke-opacity="1.0" stroke-width="1.0"/>
        <circle fill-opacity="1.0" fill="#2200ff" r="10.0" cx="-90.217926"
                class="id_21" cy="-78.691" stroke="#000000" stroke-opacity="1.0"
                stroke-width="1.0"/>
        <circle fill-opacity="1.0" fill="#2200ff" r="10.0" cx="-64.34935"
                class="id_22" cy="-50.765717" stroke="#000000"
                stroke-opacity="1.0" stroke-width="1.0"/>
        <circle fill-opacity="1.0" fill="#2200ff" r="10.0" cx="-103.28828"
                class="id_23" cy="-27.410961" stroke="#000000"
                stroke-opacity="1.0" stroke-width="1.0"/>
        <circle fill-opacity="1.0" fill="#2200ff" r="10.0" cx="-123.95213"
                class="id_24" cy="35.167076" stroke="#000000"
                stroke-opacity="1.0" stroke-width="1.0"/>
        <circle fill-opacity="1.0" fill="#1070ff" r="10.0" cx="-50.35686"
                class="id_25" cy="93.341736" stroke="#000000"
                stroke-opacity="1.0" stroke-width="1.0"/>
        <circle fill-opacity="1.0" fill="#00ff48" r="10.0" cx="-265.9697"
                class="id_26" cy="2.3651521" stroke="#000000"
                stroke-opacity="1.0" stroke-width="1.0"/>
        <circle fill-opacity="1.0" fill="#1070ff" r="10.0" cx="-78.987755"
                class="id_27" cy="126.98576" stroke="#000000"
                stroke-opacity="1.0" stroke-width="1.0"/>
        <circle fill-opacity="1.0" fill="#1070ff" r="10.0" cx="-15.18093"
                class="id_28" cy="176.13002" stroke="#000000"
                stroke-opacity="1.0" stroke-width="1.0"/>
        <circle fill-opacity="1.0" fill="#1070ff" r="10.0" cx="-49.37769"
                class="id_29" cy="181.04816" stroke="#000000"
                stroke-opacity="1.0" stroke-width="1.0"/>
    </g>
</svg>