<?xml version="1.0" encoding="UTF-8"?>
<!DOCTYPE svg PUBLIC "-//W3C//DTD SVG 1.1//EN"
    "http://www.w3.org/Graphics/SVG/1.1/DTD/svg11.dtd" >
<svg contentScriptType="text/ecmascript" width="2828.0"
     xmlns:xlink="http://www.w3.org/1999/xlink" zoomAndPan="magnify"
     contentStyleType="text/css"
     viewBox="-903.000000 -1995.000000 2828.000000 3667.000000" height="3667.0"
     preserveAspectRatio="xMidYMid meet" xmlns="http://www.w3.org/2000/svg"
     version="1.1">
    <g id="edges">
        <path fill="none" stroke-width="1.0"
              d="M -87.120644,-499.822784 C -126.816299,-475.355469 -223.060715,-498.197998 -247.528000,-537.893677"
              class="id_0 id_4" stroke-opacity="1.0" stroke="#1070ff"/>
        <path fill="none" stroke-width="1.0"
              d="M -87.120644,-499.822784 C -70.539368,-513.333008 -25.402111,-508.726440 -11.891883,-492.145172"
              class="id_0 id_6" stroke-opacity="1.0" stroke="#08a6fd"/>
        <path fill="none" stroke-width="1.0"
              d="M -87.120644,-499.822784 C -48.627747,-522.273254 42.787323,-498.209656 65.237816,-459.716766"
              class="id_0 id_10" stroke-opacity="1.0" stroke="#1938ff"/>
        <path fill="none" stroke-width="1.0"
              d="M -813.035400,1469.925293 C -806.651978,1450.037354 -767.245056,1429.780640 -747.357117,1436.163940"
              class="id_1 id_17" stroke-opacity="1.0" stroke="#08a6fd"/>
        <path fill="none" stroke-width="1.0"
              d="M -813.035400,1469.925293 C -823.424194,1456.888062 -819.451416,1421.749023 -806.414185,1411.360229"
              class="id_1 id_21" stroke-opacity="1.0" stroke="#00ddfc"/>
        <path fill="none" stroke-width="1.0"
              d="M -685.606018,-621.269287 C -708.819092,-597.488098 -779.310425,-596.635864 -803.091614,-619.848938"
              class="id_3 id_5" stroke-opacity="1.0" stroke="#1070ff"/>
        <path fill="none" stroke-width="1.0"
              d="M -685.606018,-621.269287 C -711.120789,-615.565552 -757.948608,-645.282104 -763.652344,-670.796875"
              class="id_3 id_22" stroke-opacity="1.0" stroke="#08a6fd"/>
        <path fill="none" stroke-width="1.0"
              d="M -685.606018,-621.269287 C -651.742920,-644.786072 -565.673157,-629.266663 -542.156372,-595.403564"
              class="id_3 id_24" stroke-opacity="1.0" stroke="#08a6fd"/>
        <path fill="none" stroke-width="1.0"
              d="M -247.528000,-537.893677 C -267.581238,-528.061890 -312.408752,-543.394043 -322.240540,-563.447266"
              class="id_4 id_9" stroke-opacity="1.0" stroke="#08a6fd"/>
        <path fill="none" stroke-width="1.0"
              d="M -247.528000,-537.893677 C -282.587769,-514.955994 -369.583862,-533.139221 -392.521484,-568.198975"
              class="id_4 id_27" stroke-opacity="1.0" stroke="#1070ff"/>
        <path fill="none" stroke-width="1.0"
              d="M -803.091614,-619.848938 C -821.799316,-621.796997 -846.938660,-652.780579 -844.990601,-671.488281"
              class="id_5 id_25" stroke-opacity="1.0" stroke="#1070ff"/>
        <path fill="none" stroke-width="1.0"
              d="M -803.091614,-619.848938 C -823.544189,-604.613647 -877.075867,-612.439697 -892.311157,-632.892273"
              class="id_5 id_14" stroke-opacity="1.0" stroke="#08a6fd"/>
        <path fill="none" stroke-width="1.0"
              d="M -11.891883,-492.145172 C 10.019737,-501.085419 56.297554,-481.628387 65.237816,-459.716766"
              class="id_6 id_10" stroke-opacity="1.0" stroke="#116efd"/>
        <path fill="none" stroke-width="1.0"
              d="M 784.601685,1106.588379 C 809.312317,1107.071289 845.653992,1144.861450 845.171143,1169.572144"
              class="id_7 id_29" stroke-opacity="1.0" stroke="#00e5cf"/>
        <path fill="none" stroke-width="1.0"
              d="M 365.481506,-423.255768 C 382.958252,-447.394135 445.380890,-457.386566 469.519257,-439.909821"
              class="id_8 id_18" stroke-opacity="1.0" stroke="#1938ff"/>
        <path fill="none" stroke-width="1.0"
              d="M 365.481506,-423.255768 C 391.353943,-437.994354 452.270416,-421.293640 467.009003,-395.421204"
              class="id_8 id_19" stroke-opacity="1.0" stroke="#1938ff"/>
        <path fill="none" stroke-width="1.0"
              d="M 365.481506,-423.255768 C 333.684784,-396.139832 245.315842,-403.160980 218.199921,-434.957703"
              class="id_8 id_11" stroke-opacity="1.0" stroke="#2200ff"/>
        <path fill="none" stroke-width="1.0"
              d="M 365.481506,-423.255768 C 350.365448,-412.406555 311.417480,-418.806793 300.568268,-433.922852"
              class="id_8 id_13" stroke-opacity="1.0" stroke="#116efd"/>
        <path fill="none" stroke-width="1.0"
              d="M -322.240540,-563.447266 C -337.247070,-550.341370 -379.415649,-553.192444 -392.521484,-568.198975"
              class="id_9 id_27" stroke-opacity="1.0" stroke="#08a6fd"/>
        <path fill="none" stroke-width="1.0"
              d="M 65.237816,-459.716766 C 91.717590,-462.525024 135.649643,-427.017700 138.457886,-400.537933"
              class="id_10 id_26" stroke-opacity="1.0" stroke="#1938ff"/>
        <path fill="none" stroke-width="1.0"
              d="M 65.237816,-459.716766 C 100.782043,-485.357361 192.559311,-470.501923 218.199921,-434.957703"
              class="id_10 id_11" stroke-opacity="1.0" stroke="#2200ff"/>
        <path fill="none" stroke-width="1.0"
              d="M 218.199921,-434.957703 C 209.135468,-412.125366 161.290253,-391.473480 138.457886,-400.537933"
              class="id_11 id_26" stroke-opacity="1.0" stroke="#1938ff"/>
        <path fill="none" stroke-width="1.0"
              d="M 218.199921,-434.957703 C 234.880554,-451.224396 284.301575,-450.603485 300.568268,-433.922852"
              class="id_11 id_13" stroke-opacity="1.0" stroke="#116efd"/>
        <path fill="none" stroke-width="1.0"
              d="M -892.311157,-632.892273 C -890.566223,-650.075562 -862.173889,-673.233215 -844.990601,-671.488281"
              class="id_14 id_25" stroke-opacity="1.0" stroke="#08a6fd"/>
        <path fill="none" stroke-width="1.0"
              d="M 134.305801,-315.196350 C 118.067902,-333.095093 120.559158,-384.300018 138.457886,-400.537933"
              class="id_16 id_26" stroke-opacity="1.0" stroke="#08afd0"/>
        <path fill="none" stroke-width="1.0"
              d="M -747.357117,1436.163940 C -764.129272,1443.014648 -799.563538,1428.132324 -806.414185,1411.360229"
              class="id_17 id_21" stroke-opacity="1.0" stroke="#08a6fd"/>
        <path fill="none" stroke-width="1.0"
              d="M -747.357117,1436.163940 C -729.079407,1426.299561 -686.866333,1438.919678 -677.001953,1457.197388"
              class="id_17 id_23" stroke-opacity="1.0" stroke="#08afd0"/>
        <path fill="none" stroke-width="1.0"
              d="M 469.519257,-439.909821 C 477.914948,-430.510040 476.408783,-403.816895 467.009003,-395.421204"
              class="id_18 id_19" stroke-opacity="1.0" stroke="#1070ff"/>
        <path fill="none" stroke-width="1.0"
              d="M 469.519257,-439.909821 C 489.033264,-448.697510 531.485779,-432.608032 540.273438,-413.094025"
              class="id_18 id_20" stroke-opacity="1.0" stroke="#08a6fd"/>
        <path fill="none" stroke-width="1.0"
              d="M 467.009003,-395.421204 C 478.127319,-413.608673 522.085999,-424.212341 540.273438,-413.094025"
              class="id_19 id_20" stroke-opacity="1.0" stroke="#08a6fd"/>
        <path fill="none" stroke-width="1.0"
              d="M -763.652344,-670.796875 C -780.058289,-654.667542 -828.861267,-655.082336 -844.990601,-671.488281"
              class="id_22 id_25" stroke-opacity="1.0" stroke="#08a6fd"/>
        <path fill="none" stroke-width="1.0"
              d="M -542.156372,-595.403564 C -506.788452,-619.889648 -417.007538,-603.566895 -392.521484,-568.198975"
              class="id_24 id_27" stroke-opacity="1.0" stroke="#08a6fd"/>
        <path fill="none" stroke-width="1.0"
              d="M 898.453003,1224.868774 C 876.737305,1224.465820 844.768188,1191.287842 845.171143,1169.572144"
              class="id_28 id_29" stroke-opacity="1.0" stroke="#00e5cf"/>
    </g>
    <g id="nodes">
        <circle fill-opacity="1.0" fill="#1070ff" r="10.0" cx="-87.12064"
                class="id_0" cy="-499.82278" stroke="#000000"
                stroke-opacity="1.0" stroke-width="1.0"/>
        <circle fill-opacity="1.0" fill="#00ddfc" r="10.0" cx="-813.0354"
                class="id_1" cy="1469.9253" stroke="#000000"
                stroke-opacity="1.0" stroke-width="1.0"/>
        <circle fill-opacity="1.0" fill="#00ff48" r="10.0" cx="56.847683"
                class="id_2" cy="1661.9452" stroke="#000000"
                stroke-opacity="1.0" stroke-width="1.0"/>
        <circle fill-opacity="1.0" fill="#1070ff" r="10.0" cx="-685.606"
                class="id_3" cy="-621.2693" stroke="#000000"
                stroke-opacity="1.0" stroke-width="1.0"/>
        <circle fill-opacity="1.0" fill="#1070ff" r="10.0" cx="-247.528"
                class="id_4" cy="-537.8937" stroke="#000000"
                stroke-opacity="1.0" stroke-width="1.0"/>
        <circle fill-opacity="1.0" fill="#1070ff" r="10.0" cx="-803.0916"
                class="id_5" cy="-619.84894" stroke="#000000"
                stroke-opacity="1.0" stroke-width="1.0"/>
        <circle fill-opacity="1.0" fill="#00ddfc" r="10.0" cx="-11.891883"
                class="id_6" cy="-492.14517" stroke="#000000"
                stroke-opacity="1.0" stroke-width="1.0"/>
        <circle fill-opacity="1.0" fill="#00eea2" r="10.0" cx="784.6017"
                class="id_7" cy="1106.5884" stroke="#000000"
                stroke-opacity="1.0" stroke-width="1.0"/>
        <circle fill-opacity="1.0" fill="#2200ff" r="10.0" cx="365.4815"
                class="id_8" cy="-423.25577" stroke="#000000"
                stroke-opacity="1.0" stroke-width="1.0"/>
        <circle fill-opacity="1.0" fill="#00ddfc" r="10.0" cx="-322.24054"
                class="id_9" cy="-563.44727" stroke="#000000"
                stroke-opacity="1.0" stroke-width="1.0"/>
        <circle fill-opacity="1.0" fill="#2200ff" r="10.0" cx="65.237816"
                class="id_10" cy="-459.71677" stroke="#000000"
                stroke-opacity="1.0" stroke-width="1.0"/>
        <circle fill-opacity="1.0" fill="#2200ff" r="10.0" cx="218.19992"
                class="id_11" cy="-434.9577" stroke="#000000"
                stroke-opacity="1.0" stroke-width="1.0"/>
        <circle fill-opacity="1.0" fill="#00ff48" r="10.0" cx="914.4344"
                class="id_12" cy="-1984.4165" stroke="#000000"
                stroke-opacity="1.0" stroke-width="1.0"/>
        <circle fill-opacity="1.0" fill="#00ddfc" r="10.0" cx="300.56827"
                class="id_13" cy="-433.92285" stroke="#000000"
                stroke-opacity="1.0" stroke-width="1.0"/>
        <circle fill-opacity="1.0" fill="#00ddfc" r="10.0" cx="-892.31116"
                class="id_14" cy="-632.8923" stroke="#000000"
                stroke-opacity="1.0" stroke-width="1.0"/>
        <circle fill-opacity="1.0" fill="#00ff48" r="10.0" cx="1914.6084"
                class="id_15" cy="-618.0399" stroke="#000000"
                stroke-opacity="1.0" stroke-width="1.0"/>
        <circle fill-opacity="1.0" fill="#00eea2" r="10.0" cx="134.3058"
                class="id_16" cy="-315.19635" stroke="#000000"
                stroke-opacity="1.0" stroke-width="1.0"/>
        <circle fill-opacity="1.0" fill="#1070ff" r="10.0" cx="-747.3571"
                class="id_17" cy="1436.164" stroke="#000000"
                stroke-opacity="1.0" stroke-width="1.0"/>
        <circle fill-opacity="1.0" fill="#1070ff" r="10.0" cx="469.51926"
                class="id_18" cy="-439.90982" stroke="#000000"
                stroke-opacity="1.0" stroke-width="1.0"/>
        <circle fill-opacity="1.0" fill="#1070ff" r="10.0" cx="467.009"
                class="id_19" cy="-395.4212" stroke="#000000"
                stroke-opacity="1.0" stroke-width="1.0"/>
        <circle fill-opacity="1.0" fill="#00ddfc" r="10.0" cx="540.27344"
                class="id_20" cy="-413.09402" stroke="#000000"
                stroke-opacity="1.0" stroke-width="1.0"/>
        <circle fill-opacity="1.0" fill="#00ddfc" r="10.0" cx="-806.4142"
                class="id_21" cy="1411.3602" stroke="#000000"
                stroke-opacity="1.0" stroke-width="1.0"/>
        <circle fill-opacity="1.0" fill="#00ddfc" r="10.0" cx="-763.65234"
                class="id_22" cy="-670.7969" stroke="#000000"
                stroke-opacity="1.0" stroke-width="1.0"/>
        <circle fill-opacity="1.0" fill="#00eea2" r="10.0" cx="-677.00195"
                class="id_23" cy="1457.1974" stroke="#000000"
                stroke-opacity="1.0" stroke-width="1.0"/>
        <circle fill-opacity="1.0" fill="#00ddfc" r="10.0" cx="-542.1564"
                class="id_24" cy="-595.40356" stroke="#000000"
                stroke-opacity="1.0" stroke-width="1.0"/>
        <circle fill-opacity="1.0" fill="#1070ff" r="10.0" cx="-844.9906"
                class="id_25" cy="-671.4883" stroke="#000000"
                stroke-opacity="1.0" stroke-width="1.0"/>
        <circle fill-opacity="1.0" fill="#1070ff" r="10.0" cx="138.45789"
                class="id_26" cy="-400.53793" stroke="#000000"
                stroke-opacity="1.0" stroke-width="1.0"/>
        <circle fill-opacity="1.0" fill="#1070ff" r="10.0" cx="-392.52148"
                class="id_27" cy="-568.199" stroke="#000000"
                stroke-opacity="1.0" stroke-width="1.0"/>
        <circle fill-opacity="1.0" fill="#00eea2" r="10.0" cx="898.453"
                class="id_28" cy="1224.8688" stroke="#000000"
                stroke-opacity="1.0" stroke-width="1.0"/>
        <circle fill-opacity="1.0" fill="#00ddfc" r="10.0" cx="845.17114"
                class="id_29" cy="1169.5721" stroke="#000000"
                stroke-opacity="1.0" stroke-width="1.0"/>
    </g>
</svg>