<?xml version="1.0" encoding="UTF-8"?>
<!DOCTYPE svg PUBLIC "-//W3C//DTD SVG 1.1//EN"
    "http://www.w3.org/Graphics/SVG/1.1/DTD/svg11.dtd" >
<svg contentScriptType="text/ecmascript" width="887.90784"
     xmlns:xlink="http://www.w3.org/1999/xlink" zoomAndPan="magnify"
     contentStyleType="text/css"
     viewBox="-504.000000 -535.000000 887.907837 973.000000" height="973.0"
     preserveAspectRatio="xMidYMid meet" xmlns="http://www.w3.org/2000/svg"
     version="1.1">
    <g id="edges">
        <path fill="none" stroke-width="1.0"
              d="M -39.371384,100.824448 C -53.375526,65.324165 -21.131310,-8.932478 14.368977,-22.936621"
              class="id_0 id_16" stroke-opacity="1.0" stroke="#08a6fd"/>
        <path fill="none" stroke-width="1.0"
              d="M -39.371384,100.824448 C -1.739014,116.899460 30.597023,197.460510 14.522011,235.092896"
              class="id_0 id_18" stroke-opacity="1.0" stroke="#1938ff"/>
        <path fill="none" stroke-width="1.0"
              d="M -39.371384,100.824448 C -69.206169,130.097961 -157.868591,129.256042 -187.142105,99.421257"
              class="id_0 id_19" stroke-opacity="1.0" stroke="#08a6fd"/>
        <path fill="none" stroke-width="1.0"
              d="M -39.371384,100.824448 C -23.982569,74.152138 39.109119,57.226883 65.781433,72.615700"
              class="id_0 id_14" stroke-opacity="1.0" stroke="#1938ff"/>
        <path fill="none" stroke-width="1.0"
              d="M -93.686707,3.777949 C -55.590706,22.030201 -25.825102,106.552567 -44.077354,144.648560"
              class="id_1 id_3" stroke-opacity="1.0" stroke="#00ddfc"/>
        <path fill="none" stroke-width="1.0"
              d="M -93.686707,3.777949 C -73.503319,-7.146457 -26.841633,6.742014 -15.917227,26.925400"
              class="id_1 id_8" stroke-opacity="1.0" stroke="#00e5cf"/>
        <path fill="none" stroke-width="1.0"
              d="M -93.686707,3.777949 C -128.212738,-16.163681 -150.089340,-97.865166 -130.147720,-132.391205"
              class="id_1 id_12" stroke-opacity="1.0" stroke="#00ddfc"/>
        <path fill="none" stroke-width="1.0"
              d="M 344.845642,-147.199432 C 375.837250,-121.588196 383.907837,-36.683914 358.296600,-5.692291"
              class="id_2 id_10" stroke-opacity="1.0" stroke="#00e5cf"/>
        <path fill="none" stroke-width="1.0"
              d="M 344.845642,-147.199432 C 305.604858,-151.695908 253.488434,-217.301804 257.984894,-256.542572"
              class="id_2 id_11" stroke-opacity="1.0" stroke="#00eea2"/>
        <path fill="none" stroke-width="1.0"
              d="M -44.077354,144.648560 C -14.268616,151.017548 20.891005,205.284149 14.522011,235.092896"
              class="id_3 id_18" stroke-opacity="1.0" stroke="#116efd"/>
        <path fill="none" stroke-width="1.0"
              d="M -44.077354,144.648560 C -25.640207,129.770950 24.331923,135.110260 39.209530,153.547409"
              class="id_3 id_7" stroke-opacity="1.0" stroke="#00e5cf"/>
        <path fill="none" stroke-width="1.0"
              d="M -18.260799,-278.290833 C 8.535231,-259.112579 19.961922,-190.151199 0.783685,-163.355164"
              class="id_4 id_20" stroke-opacity="1.0" stroke="#1177d0"/>
        <path fill="none" stroke-width="1.0"
              d="M -18.260799,-278.290833 C 3.654760,-312.262543 87.485695,-330.346802 121.457420,-308.431244"
              class="id_4 id_5" stroke-opacity="1.0" stroke="#116efd"/>
        <path fill="none" stroke-width="1.0"
              d="M -18.260799,-278.290833 C -54.011581,-299.264648 -76.177025,-384.351532 -55.203205,-420.102325"
              class="id_4 id_23" stroke-opacity="1.0" stroke="#1177d0"/>
        <path fill="none" stroke-width="1.0"
              d="M -18.260799,-278.290833 C -11.458258,-226.733521 -78.590416,-139.193756 -130.147720,-132.391205"
              class="id_4 id_12" stroke-opacity="1.0" stroke="#116efd"/>
        <path fill="none" stroke-width="1.0"
              d="M -18.260799,-278.290833 C -18.951109,-306.859070 22.865780,-350.746887 51.434017,-351.437195"
              class="id_4 id_29" stroke-opacity="1.0" stroke="#1177d0"/>
        <path fill="none" stroke-width="1.0"
              d="M 121.457420,-308.431244 C 159.140640,-325.358978 241.057129,-294.225800 257.984894,-256.542572"
              class="id_5 id_11" stroke-opacity="1.0" stroke="#00e5cf"/>
        <path fill="none" stroke-width="1.0"
              d="M 121.457420,-308.431244 C 98.851547,-303.027771 56.837505,-328.831329 51.434017,-351.437195"
              class="id_5 id_29" stroke-opacity="1.0" stroke="#00e5cf"/>
        <path fill="none" stroke-width="1.0"
              d="M -147.526291,427.839264 C -161.038406,398.598633 -137.445618,334.469513 -108.204971,320.957397"
              class="id_6 id_27" stroke-opacity="1.0" stroke="#00eea2"/>
        <path fill="none" stroke-width="1.0"
              d="M 39.209530,153.547409 C 28.337568,132.046692 44.280708,83.487656 65.781433,72.615700"
              class="id_7 id_14" stroke-opacity="1.0" stroke="#1177d0"/>
        <path fill="none" stroke-width="1.0"
              d="M -15.917227,26.925400 C 9.560564,19.723730 58.579765,47.137909 65.781433,72.615700"
              class="id_8 id_14" stroke-opacity="1.0" stroke="#1177d0"/>
        <path fill="none" stroke-width="1.0"
              d="M 204.210617,104.621307 C 216.220749,126.843521 200.902634,178.192047 178.680405,190.202179"
              class="id_9 id_21" stroke-opacity="1.0" stroke="#00ddfc"/>
        <path fill="none" stroke-width="1.0"
              d="M 204.210617,104.621307 C 219.274902,73.308846 288.840027,48.936584 320.152496,64.000877"
              class="id_9 id_22" stroke-opacity="1.0" stroke="#00e5cf"/>
        <path fill="none" stroke-width="1.0"
              d="M 204.210617,104.621307 C 170.123657,125.906021 87.066147,106.702660 65.781433,72.615700"
              class="id_9 id_14" stroke-opacity="1.0" stroke="#116efd"/>
        <path fill="none" stroke-width="1.0"
              d="M 358.296600,-5.692291 C 364.606415,15.875162 341.719940,57.691067 320.152496,64.000877"
              class="id_10 id_22" stroke-opacity="1.0" stroke="#00e5cf"/>
        <path fill="none" stroke-width="1.0"
              d="M 358.296600,-5.692291 C 372.535522,30.512636 339.586456,106.178375 303.381531,120.417267"
              class="id_10 id_15" stroke-opacity="1.0" stroke="#00e5cf"/>
        <path fill="none" stroke-width="1.0"
              d="M -130.147720,-132.391205 C -136.094269,-89.182014 -209.827896,-33.288055 -253.037079,-39.234608"
              class="id_12 id_13" stroke-opacity="1.0" stroke="#00ddfc"/>
        <path fill="none" stroke-width="1.0"
              d="M -253.037079,-39.234608 C -212.126907,-24.682426 -172.589935,58.511086 -187.142105,99.421257"
              class="id_13 id_19" stroke-opacity="1.0" stroke="#00ddfc"/>
        <path fill="none" stroke-width="1.0"
              d="M -253.037079,-39.234608 C -286.821838,-17.938009 -369.443817,-36.670212 -390.740417,-70.454941"
              class="id_13 id_26" stroke-opacity="1.0" stroke="#00e5cf"/>
        <path fill="none" stroke-width="1.0"
              d="M 65.781433,72.615700 C 36.388481,63.787724 5.541002,6.456334 14.368977,-22.936621"
              class="id_14 id_16" stroke-opacity="1.0" stroke="#116efd"/>
        <path fill="none" stroke-width="1.0"
              d="M 303.381531,120.417267 C 292.398285,159.314484 217.577621,201.185425 178.680405,190.202179"
              class="id_15 id_21" stroke-opacity="1.0" stroke="#00e5cf"/>
        <path fill="none" stroke-width="1.0"
              d="M 14.368977,-22.936621 C -16.431791,-48.303272 -24.582966,-132.554398 0.783685,-163.355164"
              class="id_16 id_20" stroke-opacity="1.0" stroke="#00e5cf"/>
        <path fill="none" stroke-width="1.0"
              d="M -493.084717,-94.614822 C -467.783875,-110.251709 -406.377319,-95.755783 -390.740417,-70.454941"
              class="id_17 id_26" stroke-opacity="1.0" stroke="#00f675"/>
        <path fill="none" stroke-width="1.0"
              d="M 14.522011,235.092896 C 38.375542,193.283066 136.870575,166.348648 178.680405,190.202179"
              class="id_18 id_21" stroke-opacity="1.0" stroke="#116efd"/>
        <path fill="none" stroke-width="1.0"
              d="M 14.522011,235.092896 C 7.149515,276.811188 -66.486679,328.329895 -108.204971,320.957397"
              class="id_18 id_27" stroke-opacity="1.0" stroke="#116efd"/>
        <path fill="none" stroke-width="1.0"
              d="M 14.522011,235.092896 C 42.824501,251.943771 60.001938,319.673798 43.151070,347.976288"
              class="id_18 id_28" stroke-opacity="1.0" stroke="#117fa3"/>
        <path fill="none" stroke-width="1.0"
              d="M -187.142105,99.421257 C -160.792679,126.997223 -162.632477,207.885300 -190.208435,234.234726"
              class="id_19 id_25" stroke-opacity="1.0" stroke="#00e5cf"/>
        <path fill="none" stroke-width="1.0"
              d="M -55.203205,-420.102325 C -80.864258,-436.292236 -95.070984,-499.068695 -78.881073,-524.729736"
              class="id_23 id_24" stroke-opacity="1.0" stroke="#00f675"/>
        <path fill="none" stroke-width="1.0"
              d="M -190.208435,234.234726 C -156.463211,235.178558 -107.261131,287.212158 -108.204971,320.957397"
              class="id_25 id_27" stroke-opacity="1.0" stroke="#00e5cf"/>
    </g>
    <g id="nodes">
        <circle fill-opacity="1.0" fill="#1070ff" r="10.0" cx="-39.371384"
                class="id_0" cy="100.82445" stroke="#000000"
                stroke-opacity="1.0" stroke-width="1.0"/>
        <circle fill-opacity="1.0" fill="#00ddfc" r="10.0" cx="-93.68671"
                class="id_1" cy="3.777949" stroke="#000000" stroke-opacity="1.0"
                stroke-width="1.0"/>
        <circle fill-opacity="1.0" fill="#00eea2" r="10.0" cx="344.84564"
                class="id_2" cy="-147.19943" stroke="#000000"
                stroke-opacity="1.0" stroke-width="1.0"/>
        <circle fill-opacity="1.0" fill="#00ddfc" r="10.0" cx="-44.077354"
                class="id_3" cy="144.64856" stroke="#000000"
                stroke-opacity="1.0" stroke-width="1.0"/>
        <circle fill-opacity="1.0" fill="#2200ff" r="10.0" cx="-18.2608"
                class="id_4" cy="-278.29083" stroke="#000000"
                stroke-opacity="1.0" stroke-width="1.0"/>
        <circle fill-opacity="1.0" fill="#00ddfc" r="10.0" cx="121.45742"
                class="id_5" cy="-308.43124" stroke="#000000"
                stroke-opacity="1.0" stroke-width="1.0"/>
        <circle fill-opacity="1.0" fill="#00ff48" r="10.0" cx="-147.52629"
                class="id_6" cy="427.83926" stroke="#000000"
                stroke-opacity="1.0" stroke-width="1.0"/>
        <circle fill-opacity="1.0" fill="#00eea2" r="10.0" cx="39.20953"
                class="id_7" cy="153.54741" stroke="#000000"
                stroke-opacity="1.0" stroke-width="1.0"/>
        <circle fill-opacity="1.0" fill="#00eea2" r="10.0" cx="-15.917227"
                class="id_8" cy="26.9254" stroke="#000000" stroke-opacity="1.0"
                stroke-width="1.0"/>
        <circle fill-opacity="1.0" fill="#00ddfc" r="10.0" cx="204.21062"
                class="id_9" cy="104.62131" stroke="#000000"
                stroke-opacity="1.0" stroke-width="1.0"/>
        <circle fill-opacity="1.0" fill="#00ddfc" r="10.0" cx="358.2966"
                class="id_10" cy="-5.6922913" stroke="#000000"
                stroke-opacity="1.0" stroke-width="1.0"/>
        <circle fill-opacity="1.0" fill="#00eea2" r="10.0" cx="257.9849"
                class="id_11" cy="-256.54257" stroke="#000000"
                stroke-opacity="1.0" stroke-width="1.0"/>
        <circle fill-opacity="1.0" fill="#00ddfc" r="10.0" cx="-130.14772"
                class="id_12" cy="-132.3912" stroke="#000000"
                stroke-opacity="1.0" stroke-width="1.0"/>
        <circle fill-opacity="1.0" fill="#00ddfc" r="10.0" cx="-253.03708"
                class="id_13" cy="-39.234608" stroke="#000000"
                stroke-opacity="1.0" stroke-width="1.0"/>
        <circle fill-opacity="1.0" fill="#2200ff" r="10.0" cx="65.78143"
                class="id_14" cy="72.6157" stroke="#000000" stroke-opacity="1.0"
                stroke-width="1.0"/>
        <circle fill-opacity="1.0" fill="#00eea2" r="10.0" cx="303.38153"
                class="id_15" cy="120.41727" stroke="#000000"
                stroke-opacity="1.0" stroke-width="1.0"/>
        <circle fill-opacity="1.0" fill="#00ddfc" r="10.0" cx="14.368977"
                class="id_16" cy="-22.93662" stroke="#000000"
                stroke-opacity="1.0" stroke-width="1.0"/>
        <circle fill-opacity="1.0" fill="#00ff48" r="10.0" cx="-493.08472"
                class="id_17" cy="-94.61482" stroke="#000000"
                stroke-opacity="1.0" stroke-width="1.0"/>
        <circle fill-opacity="1.0" fill="#2200ff" r="10.0" cx="14.522011"
                class="id_18" cy="235.0929" stroke="#000000"
                stroke-opacity="1.0" stroke-width="1.0"/>
        <circle fill-opacity="1.0" fill="#00ddfc" r="10.0" cx="-187.1421"
                class="id_19" cy="99.42126" stroke="#000000"
                stroke-opacity="1.0" stroke-width="1.0"/>
        <circle fill-opacity="1.0" fill="#00eea2" r="10.0" cx="0.78368497"
                class="id_20" cy="-163.35516" stroke="#000000"
                stroke-opacity="1.0" stroke-width="1.0"/>
        <circle fill-opacity="1.0" fill="#00ddfc" r="10.0" cx="178.6804"
                class="id_21" cy="190.20218" stroke="#000000"
                stroke-opacity="1.0" stroke-width="1.0"/>
        <circle fill-opacity="1.0" fill="#00eea2" r="10.0" cx="320.1525"
                class="id_22" cy="64.00088" stroke="#000000"
                stroke-opacity="1.0" stroke-width="1.0"/>
        <circle fill-opacity="1.0" fill="#00eea2" r="10.0" cx="-55.203205"
                class="id_23" cy="-420.10233" stroke="#000000"
                stroke-opacity="1.0" stroke-width="1.0"/>
        <circle fill-opacity="1.0" fill="#00ff48" r="10.0" cx="-78.88107"
                class="id_24" cy="-524.72974" stroke="#000000"
                stroke-opacity="1.0" stroke-width="1.0"/>
        <circle fill-opacity="1.0" fill="#00eea2" r="10.0" cx="-190.20844"
                class="id_25" cy="234.23473" stroke="#000000"
                stroke-opacity="1.0" stroke-width="1.0"/>
        <circle fill-opacity="1.0" fill="#00eea2" r="10.0" cx="-390.74042"
                class="id_26" cy="-70.45494" stroke="#000000"
                stroke-opacity="1.0" stroke-width="1.0"/>
        <circle fill-opacity="1.0" fill="#00ddfc" r="10.0" cx="-108.20497"
                class="id_27" cy="320.9574" stroke="#000000"
                stroke-opacity="1.0" stroke-width="1.0"/>
        <circle fill-opacity="1.0" fill="#00ff48" r="10.0" cx="43.15107"
                class="id_28" cy="347.9763" stroke="#000000"
                stroke-opacity="1.0" stroke-width="1.0"/>
        <circle fill-opacity="1.0" fill="#00eea2" r="10.0" cx="51.434017"
                class="id_29" cy="-351.4372" stroke="#000000"
                stroke-opacity="1.0" stroke-width="1.0"/>
    </g>
</svg>