<?xml version="1.0" encoding="UTF-8"?>
<!DOCTYPE svg PUBLIC "-//W3C//DTD SVG 1.1//EN"
    "http://www.w3.org/Graphics/SVG/1.1/DTD/svg11.dtd" >
<svg contentScriptType="text/ecmascript" width="3836.0"
     xmlns:xlink="http://www.w3.org/1999/xlink" zoomAndPan="magnify"
     contentStyleType="text/css"
     viewBox="-1826.000000 -2020.000000 3836.000000 3989.000000" height="3989.0"
     preserveAspectRatio="xMidYMid meet" xmlns="http://www.w3.org/2000/svg"
     version="1.1">
    <g id="edges">
        <path fill="none" stroke-width="1.0"
              d="M -26.157328,278.532257 C 11.493513,276.144470 71.551476,329.039001 73.939278,366.689850"
              class="id_0 id_73" stroke-opacity="1.0" stroke="#00e6c8"/>
        <path fill="none" stroke-width="1.0"
              d="M -26.157328,278.532257 C -61.705757,257.778870 -83.898308,173.326157 -63.144920,137.777725"
              class="id_0 id_94" stroke-opacity="1.0" stroke="#00e6c8"/>
        <path fill="none" stroke-width="1.0"
              d="M 266.766876,348.151489 C 218.163498,319.641357 188.023605,203.971115 216.533722,155.367737"
              class="id_1 id_82" stroke-opacity="1.0" stroke="#02d5d7"/>
        <path fill="none" stroke-width="1.0"
              d="M 266.766876,348.151489 C 300.988861,369.241943 320.686127,452.210632 299.595673,486.432617"
              class="id_1 id_62" stroke-opacity="1.0" stroke="#00ebaf"/>
        <path fill="none" stroke-width="1.0"
              d="M -54.829269,-157.243423 C -58.236870,-120.368111 -118.661224,-70.166550 -155.536545,-73.574150"
              class="id_3 id_56" stroke-opacity="1.0" stroke="#00e6c8"/>
        <path fill="none" stroke-width="1.0"
              d="M -54.829269,-157.243423 C -20.664438,-211.270157 111.622887,-241.062988 165.649612,-206.898163"
              class="id_3 id_30" stroke-opacity="1.0" stroke="#00e2e2"/>
        <path fill="none" stroke-width="1.0"
              d="M -54.829269,-157.243423 C -84.558090,-103.975014 -209.053940,-68.665619 -262.322357,-98.394440"
              class="id_3 id_47" stroke-opacity="1.0" stroke="#00e2e2"/>
        <path fill="none" stroke-width="1.0"
              d="M -215.770279,-421.847046 C -250.325241,-410.089630 -319.793823,-444.285919 -331.551239,-478.840881"
              class="id_4 id_91" stroke-opacity="1.0" stroke="#00e6c8"/>
        <path fill="none" stroke-width="1.0"
              d="M -215.770279,-421.847046 C -171.556549,-450.475494 -62.293297,-427.097626 -33.664829,-382.883911"
              class="id_4 id_27" stroke-opacity="1.0" stroke="#00e2e2"/>
        <path fill="none" stroke-width="1.0"
              d="M -215.770279,-421.847046 C -219.480331,-375.513763 -294.545258,-311.578979 -340.878540,-315.289032"
              class="id_4 id_78" stroke-opacity="1.0" stroke="#02d1f0"/>
        <path fill="none" stroke-width="1.0"
              d="M -752.970276,-179.103134 C -769.558960,-139.651138 -853.620056,-105.356239 -893.072021,-121.944954"
              class="id_5 id_50" stroke-opacity="1.0" stroke="#00e6c8"/>
        <path fill="none" stroke-width="1.0"
              d="M -752.970276,-179.103134 C -717.561829,-216.999954 -607.603882,-220.732498 -569.707031,-185.324020"
              class="id_5 id_66" stroke-opacity="1.0" stroke="#00e6c8"/>
        <path fill="none" stroke-width="1.0"
              d="M -459.168365,434.021820 C -451.493286,488.924377 -522.334534,582.790833 -577.237122,590.465881"
              class="id_6 id_7" stroke-opacity="1.0" stroke="#00e6c8"/>
        <path fill="none" stroke-width="1.0"
              d="M -459.168365,434.021820 C -428.917023,391.627472 -319.948456,373.413025 -277.554108,403.664368"
              class="id_6 id_58" stroke-opacity="1.0" stroke="#02d1f0"/>
        <path fill="none" stroke-width="1.0"
              d="M -459.168365,434.021820 C -498.547363,392.808228 -495.795532,271.919403 -454.581940,232.540421"
              class="id_6 id_90" stroke-opacity="1.0" stroke="#02d1f0"/>
        <path fill="none" stroke-width="1.0"
              d="M -577.237122,590.465881 C -570.013977,638.484436 -631.207214,721.346985 -679.225769,728.570129"
              class="id_7 id_9" stroke-opacity="1.0" stroke="#00ebaf"/>
        <path fill="none" stroke-width="1.0"
              d="M -1164.982056,-69.813034 C -1149.218018,-100.369965 -1079.736572,-122.559242 -1049.179565,-106.795174"
              class="id_8 id_28" stroke-opacity="1.0" stroke="#00f095"/>
        <path fill="none" stroke-width="1.0"
              d="M -679.225769,728.570129 C -674.489441,761.751038 -717.156250,818.626770 -750.337158,823.363098"
              class="id_9 id_29" stroke-opacity="1.0" stroke="#00f095"/>
        <path fill="none" stroke-width="1.0"
              d="M 80.458321,-260.915436 C 134.995041,-246.458023 195.113983,-142.966827 180.656570,-88.430107"
              class="id_11 id_52" stroke-opacity="1.0" stroke="#00e6c8"/>
        <path fill="none" stroke-width="1.0"
              d="M 80.458321,-260.915436 C 33.239998,-262.484497 -35.233894,-335.665588 -33.664829,-382.883911"
              class="id_11 id_27" stroke-opacity="1.0" stroke="#00e6c8"/>
        <path fill="none" stroke-width="1.0"
              d="M 299.597382,418.882416 C 257.557800,399.705261 223.264130,307.880188 242.441284,265.840607"
              class="id_13 id_71" stroke-opacity="1.0" stroke="#04c0ff"/>
        <path fill="none" stroke-width="1.0"
              d="M 299.597382,418.882416 C 341.079193,431.239166 384.766724,511.997040 372.409973,553.478821"
              class="id_13 id_24" stroke-opacity="1.0" stroke="#02dabd"/>
        <path fill="none" stroke-width="1.0"
              d="M 299.597382,418.882416 C 265.296082,408.373779 229.607056,341.158875 240.115692,306.857574"
              class="id_13 id_25" stroke-opacity="1.0" stroke="#02d1f0"/>
        <path fill="none" stroke-width="1.0"
              d="M 299.597382,418.882416 C 313.107086,432.392792 313.106049,472.922913 299.595673,486.432617"
              class="id_13 id_62" stroke-opacity="1.0" stroke="#02d5d7"/>
        <path fill="none" stroke-width="1.0"
              d="M -431.649811,-279.024109 C -422.289459,-281.526306 -404.495605,-271.239044 -401.993408,-261.878693"
              class="id_14 id_98" stroke-opacity="1.0" stroke="#00e2e2"/>
        <path fill="none" stroke-width="1.0"
              d="M -431.649811,-279.024109 C -393.462982,-261.992371 -361.730408,-179.164536 -378.762146,-140.977737"
              class="id_14 id_21" stroke-opacity="1.0" stroke="#02d1f0"/>
        <path fill="none" stroke-width="1.0"
              d="M -431.649811,-279.024109 C -420.748535,-304.431366 -366.285797,-326.190308 -340.878540,-315.289032"
              class="id_14 id_78" stroke-opacity="1.0" stroke="#02d1f0"/>
        <path fill="none" stroke-width="1.0"
              d="M 324.664795,-87.492805 C 330.984253,-144.488373 425.956818,-220.502518 482.952362,-214.183044"
              class="id_15 id_36" stroke-opacity="1.0" stroke="#00e6c8"/>
        <path fill="none" stroke-width="1.0"
              d="M 324.664795,-87.492805 C 272.446075,-57.638699 149.336899,-91.185593 119.482796,-143.404297"
              class="id_15 id_40" stroke-opacity="1.0" stroke="#00e2e2"/>
        <path fill="none" stroke-width="1.0"
              d="M 324.664795,-87.492805 C 363.446136,-47.412701 361.497986,70.879471 321.417877,109.660805"
              class="id_15 id_44" stroke-opacity="1.0" stroke="#00e6c8"/>
        <path fill="none" stroke-width="1.0"
              d="M 211.899323,-260.558105 C 240.076370,-219.883957 221.330719,-116.607155 180.656570,-88.430107"
              class="id_16 id_52" stroke-opacity="1.0" stroke="#00e6c8"/>
        <path fill="none" stroke-width="1.0"
              d="M 211.899323,-260.558105 C 182.875275,-277.985046 165.479614,-347.661499 182.906540,-376.685547"
              class="id_16 id_72" stroke-opacity="1.0" stroke="#00ebaf"/>
        <path fill="none" stroke-width="1.0"
              d="M 95.017715,-326.083191 C 136.446503,-294.440430 151.125565,-184.833099 119.482796,-143.404297"
              class="id_18 id_40" stroke-opacity="1.0" stroke="#00e2e2"/>
        <path fill="none" stroke-width="1.0"
              d="M 95.017715,-326.083191 C 102.475014,-353.781433 155.208313,-384.142822 182.906540,-376.685547"
              class="id_18 id_72" stroke-opacity="1.0" stroke="#00e6c8"/>
        <path fill="none" stroke-width="1.0"
              d="M 95.017715,-326.083191 C 57.921059,-311.706818 -19.288464,-345.787262 -33.664829,-382.883911"
              class="id_18 id_27" stroke-opacity="1.0" stroke="#00e2e2"/>
        <path fill="none" stroke-width="1.0"
              d="M -38.649925,-2.890697 C -73.565239,40.855980 -191.558228,54.103027 -235.304901,19.187716"
              class="id_19 id_53" stroke-opacity="1.0" stroke="#1360ff"/>
        <path fill="none" stroke-width="1.0"
              d="M -38.649925,-2.890697 C 31.328241,-39.306145 190.918671,11.037933 227.334122,81.016098"
              class="id_19 id_54" stroke-opacity="1.0" stroke="#02d1f0"/>
        <path fill="none" stroke-width="1.0"
              d="M -38.649925,-2.890697 C -35.126099,-62.619965 59.753525,-146.928116 119.482796,-143.404297"
              class="id_19 id_40" stroke-opacity="1.0" stroke="#02d1f0"/>
        <path fill="none" stroke-width="1.0"
              d="M -38.649925,-2.890697 C -95.615402,51.758736 -263.037750,48.284679 -317.687195,-8.680793"
              class="id_19 id_57" stroke-opacity="1.0" stroke="#02d5d7"/>
        <path fill="none" stroke-width="1.0"
              d="M -378.762146,-140.977737 C -407.368073,-133.645554 -461.275208,-165.556183 -468.607391,-194.162109"
              class="id_21 id_33" stroke-opacity="1.0" stroke="#04c0ff"/>
        <path fill="none" stroke-width="1.0"
              d="M -378.762146,-140.977737 C -407.588562,-160.511673 -421.527344,-233.052246 -401.993408,-261.878693"
              class="id_21 id_98" stroke-opacity="1.0" stroke="#02d1f0"/>
        <path fill="none" stroke-width="1.0"
              d="M -378.762146,-140.977737 C -318.037628,-137.636093 -231.963242,-41.536827 -235.304901,19.187716"
              class="id_21 id_53" stroke-opacity="1.0" stroke="#1360ff"/>
        <path fill="none" stroke-width="1.0"
              d="M -587.912598,-247.403351 C -553.403320,-260.616150 -481.820190,-228.671402 -468.607391,-194.162109"
              class="id_22 id_33" stroke-opacity="1.0" stroke="#02d5d7"/>
        <path fill="none" stroke-width="1.0"
              d="M -587.912598,-247.403351 C -571.855591,-238.628601 -560.932251,-201.380997 -569.707031,-185.324020"
              class="id_22 id_66" stroke-opacity="1.0" stroke="#00e6c8"/>
        <path fill="none" stroke-width="1.0"
              d="M 425.470947,17.838982 C 402.581848,48.664948 322.009277,60.570251 291.183289,37.681152"
              class="id_23 id_83" stroke-opacity="1.0" stroke="#02dabd"/>
        <path fill="none" stroke-width="1.0"
              d="M 240.115692,306.857574 C 218.846863,352.059326 119.141014,387.958679 73.939278,366.689850"
              class="id_25 id_73" stroke-opacity="1.0" stroke="#00e2e2"/>
        <path fill="none" stroke-width="1.0"
              d="M 240.115692,306.857574 C 216.936768,251.157776 265.718079,132.839722 321.417877,109.660805"
              class="id_25 id_44" stroke-opacity="1.0" stroke="#00e6c8"/>
        <path fill="none" stroke-width="1.0"
              d="M -420.261536,7.789663 C -470.321045,-22.931520 -499.328583,-144.102585 -468.607391,-194.162109"
              class="id_26 id_33" stroke-opacity="1.0" stroke="#02d1f0"/>
        <path fill="none" stroke-width="1.0"
              d="M -420.261536,7.789663 C -382.175446,59.603897 -402.767700,194.454346 -454.581940,232.540421"
              class="id_26 id_90" stroke-opacity="1.0" stroke="#02d1f0"/>
        <path fill="none" stroke-width="1.0"
              d="M -420.261536,7.789663 C -409.910522,-45.034996 -315.147003,-108.745453 -262.322357,-98.394440"
              class="id_26 id_47" stroke-opacity="1.0" stroke="#00e2e2"/>
        <path fill="none" stroke-width="1.0"
              d="M -1049.179565,-106.795174 C -1020.988037,-141.046631 -927.323486,-150.136505 -893.072021,-121.944954"
              class="id_28 id_50" stroke-opacity="1.0" stroke="#00e6c8"/>
        <path fill="none" stroke-width="1.0"
              d="M 165.649612,-206.898163 C 161.648529,-249.321793 219.282333,-318.958862 261.705963,-322.959930"
              class="id_30 id_60" stroke-opacity="1.0" stroke="#00ebae"/>
        <path fill="none" stroke-width="1.0"
              d="M 165.649612,-206.898163 C 212.812073,-223.341385 308.220581,-177.262497 324.663788,-130.100037"
              class="id_30 id_79" stroke-opacity="1.0" stroke="#00e2e2"/>
        <path fill="none" stroke-width="1.0"
              d="M 841.279663,1727.224121 C 818.060242,1718.214355 796.745728,1669.870728 805.755432,1646.651245"
              class="id_31 id_43" stroke-opacity="1.0" stroke="#00f57b"/>
        <path fill="none" stroke-width="1.0"
              d="M -1489.272461,-477.074707 C -1518.060913,-464.598907 -1579.957275,-489.067902 -1592.432983,-517.856323"
              class="id_32 id_46" stroke-opacity="1.0" stroke="#00f57b"/>
        <path fill="none" stroke-width="1.0"
              d="M -468.607391,-194.162109 C -488.536621,-241.158966 -447.935150,-341.548126 -400.938293,-361.477356"
              class="id_33 id_34" stroke-opacity="1.0" stroke="#02d1f0"/>
        <path fill="none" stroke-width="1.0"
              d="M -400.938293,-361.477356 C -368.600922,-375.837128 -298.555267,-348.870789 -284.195496,-316.533417"
              class="id_34 id_67" stroke-opacity="1.0" stroke="#00e6c8"/>
        <path fill="none" stroke-width="1.0"
              d="M -400.938293,-361.477356 C -410.533600,-398.827484 -368.901367,-469.245575 -331.551239,-478.840881"
              class="id_34 id_91" stroke-opacity="1.0" stroke="#00e6c8"/>
        <path fill="none" stroke-width="1.0"
              d="M 1158.419800,-876.507385 C 1151.768799,-900.195984 1177.325195,-945.705505 1201.013794,-952.356506"
              class="id_35 id_41" stroke-opacity="1.0" stroke="#00f095"/>
        <path fill="none" stroke-width="1.0"
              d="M 482.952362,-214.183044 C 489.560669,-251.441269 555.360474,-297.416138 592.618713,-290.807831"
              class="id_36 id_86" stroke-opacity="1.0" stroke="#00f095"/>
        <path fill="none" stroke-width="1.0"
              d="M -570.498169,301.651306 C -561.137146,264.645874 -491.587372,223.179352 -454.581940,232.540421"
              class="id_37 id_90" stroke-opacity="1.0" stroke="#02dabd"/>
        <path fill="none" stroke-width="1.0"
              d="M 347.683838,361.655945 C 307.472260,363.541412 244.326736,306.052185 242.441284,265.840607"
              class="id_38 id_71" stroke-opacity="1.0" stroke="#02dabd"/>
        <path fill="none" stroke-width="1.0"
              d="M -314.493866,107.884048 C -316.395325,74.306992 -268.881958,21.089191 -235.304901,19.187716"
              class="id_39 id_53" stroke-opacity="1.0" stroke="#117abd"/>
        <path fill="none" stroke-width="1.0"
              d="M 1201.013794,-952.356506 C 1180.665283,-957.450134 1157.782959,-995.613342 1162.876587,-1015.961853"
              class="id_41 id_89" stroke-opacity="1.0" stroke="#00ebaf"/>
        <path fill="none" stroke-width="1.0"
              d="M 456.305023,-164.512726 C 436.859314,-131.301941 357.874573,-110.654327 324.663788,-130.100037"
              class="id_42 id_79" stroke-opacity="1.0" stroke="#00ebae"/>
        <path fill="none" stroke-width="1.0"
              d="M -262.322357,-98.394440 C -288.966187,-91.971016 -338.567108,-122.301643 -344.990540,-148.945496"
              class="id_47 id_61" stroke-opacity="1.0" stroke="#07b1f0"/>
        <path fill="none" stroke-width="1.0"
              d="M -322.467346,532.637268 C -339.279297,497.860046 -312.331329,420.476318 -277.554108,403.664368"
              class="id_48 id_58" stroke-opacity="1.0" stroke="#02dabd"/>
        <path fill="none" stroke-width="1.0"
              d="M -47.030849,-50.565380 C 12.737049,-51.210026 103.355865,37.474865 104.000504,97.242760"
              class="id_49 id_88" stroke-opacity="1.0" stroke="#02d5d7"/>
        <path fill="none" stroke-width="1.0"
              d="M -47.030849,-50.565380 C -106.343765,-45.090820 -203.524979,-125.848358 -208.999542,-185.161270"
              class="id_49 id_59" stroke-opacity="1.0" stroke="#00e6c8"/>
        <path fill="none" stroke-width="1.0"
              d="M -893.072021,-121.944954 C -854.784912,-137.174545 -774.509949,-102.588295 -759.280334,-64.301208"
              class="id_50 id_75" stroke-opacity="1.0" stroke="#00e6c8"/>
        <path fill="none" stroke-width="1.0"
              d="M 180.656570,-88.430107 C 236.591583,-46.845963 258.117859,99.432732 216.533722,155.367737"
              class="id_52 id_82" stroke-opacity="1.0" stroke="#02d1f0"/>
        <path fill="none" stroke-width="1.0"
              d="M -235.304901,19.187716 C -210.033386,77.941841 -260.257294,203.980316 -319.011414,229.251831"
              class="id_53 id_99" stroke-opacity="1.0" stroke="#1171f0"/>
        <path fill="none" stroke-width="1.0"
              d="M -235.304901,19.187716 C -237.903595,-15.318331 -190.042587,-70.975449 -155.536545,-73.574150"
              class="id_53 id_56" stroke-opacity="1.0" stroke="#1175d7"/>
        <path fill="none" stroke-width="1.0"
              d="M -235.304901,19.187716 C -290.868683,7.498201 -356.680054,-93.381729 -344.990540,-148.945496"
              class="id_53 id_61" stroke-opacity="1.0" stroke="#1840ff"/>
        <path fill="none" stroke-width="1.0"
              d="M -235.304901,19.187716 C -177.154907,8.473724 -73.858917,79.627731 -63.144920,137.777725"
              class="id_53 id_94" stroke-opacity="1.0" stroke="#1171f0"/>
        <path fill="none" stroke-width="1.0"
              d="M 227.334122,81.016098 C 261.483093,98.479752 286.511047,175.898666 269.047394,210.047623"
              class="id_54 id_92" stroke-opacity="1.0" stroke="#02d1f0"/>
        <path fill="none" stroke-width="1.0"
              d="M 227.334122,81.016098 C 289.061981,35.592316 449.789490,60.048470 495.213287,121.776344"
              class="id_54 id_95" stroke-opacity="1.0" stroke="#02d1f0"/>
        <path fill="none" stroke-width="1.0"
              d="M 1243.488403,-1108.782104 C 1241.214233,-1133.520630 1274.910889,-1174.039673 1299.649414,-1176.313843"
              class="id_55 id_81" stroke-opacity="1.0" stroke="#00f095"/>
        <path fill="none" stroke-width="1.0"
              d="M 1243.488403,-1108.782104 C 1245.930176,-1074.095703 1197.562988,-1018.403503 1162.876587,-1015.961853"
              class="id_55 id_89" stroke-opacity="1.0" stroke="#00ebaf"/>
        <path fill="none" stroke-width="1.0"
              d="M -317.687195,-8.680793 C -370.711945,39.280727 -522.191345,31.685913 -570.152832,-21.338818"
              class="id_57 id_85" stroke-opacity="1.0" stroke="#00e6c8"/>
        <path fill="none" stroke-width="1.0"
              d="M -277.554108,403.664368 C -320.728088,377.073334 -345.602448,272.425812 -319.011414,229.251831"
              class="id_58 id_99" stroke-opacity="1.0" stroke="#02d1f0"/>
        <path fill="none" stroke-width="1.0"
              d="M -277.554108,403.664368 C -233.980850,360.643188 -104.089172,361.471313 -61.067986,405.044556"
              class="id_58 id_70" stroke-opacity="1.0" stroke="#02d1f0"/>
        <path fill="none" stroke-width="1.0"
              d="M -208.999542,-185.161270 C -250.313156,-196.396515 -295.430725,-275.219788 -284.195496,-316.533417"
              class="id_59 id_67" stroke-opacity="1.0" stroke="#00e6c8"/>
        <path fill="none" stroke-width="1.0"
              d="M -208.999542,-185.161270 C -228.954590,-150.719925 -310.549164,-128.990448 -344.990540,-148.945496"
              class="id_59 id_61" stroke-opacity="1.0" stroke="#07b1f0"/>
        <path fill="none" stroke-width="1.0"
              d="M -344.990540,-148.945496 C -397.209534,-111.277908 -532.039429,-133.105011 -569.707031,-185.324020"
              class="id_61 id_66" stroke-opacity="1.0" stroke="#07b1f0"/>
        <path fill="none" stroke-width="1.0"
              d="M -344.990540,-148.945496 C -377.436859,-183.036606 -374.969635,-282.842712 -340.878540,-315.289032"
              class="id_61 id_78" stroke-opacity="1.0" stroke="#09a0ff"/>
        <path fill="none" stroke-width="1.0"
              d="M 611.885010,189.901184 C 574.925720,199.610565 504.922638,158.735657 495.213287,121.776344"
              class="id_63 id_95" stroke-opacity="1.0" stroke="#02dabd"/>
        <path fill="none" stroke-width="1.0"
              d="M 635.184875,144.142883 C 602.717224,167.663895 518.734253,154.243973 495.213287,121.776344"
              class="id_64 id_95" stroke-opacity="1.0" stroke="#02dabd"/>
        <path fill="none" stroke-width="1.0"
              d="M 395.372437,280.112701 C 356.094421,291.364685 280.299377,249.325653 269.047394,210.047623"
              class="id_65 id_92" stroke-opacity="1.0" stroke="#02dabd"/>
        <path fill="none" stroke-width="1.0"
              d="M -61.067986,405.044556 C -38.980145,355.425354 68.580414,314.128357 118.199600,336.216187"
              class="id_70 id_87" stroke-opacity="1.0" stroke="#00e6c8"/>
        <path fill="none" stroke-width="1.0"
              d="M -61.067986,405.044556 C -41.737473,370.372162 39.266884,347.359314 73.939278,366.689850"
              class="id_70 id_73" stroke-opacity="1.0" stroke="#00e2e2"/>
        <path fill="none" stroke-width="1.0"
              d="M 242.441284,265.840607 C 215.165192,248.927551 199.620667,182.643829 216.533722,155.367737"
              class="id_71 id_82" stroke-opacity="1.0" stroke="#04c0ff"/>
        <path fill="none" stroke-width="1.0"
              d="M 242.441284,265.840607 C 181.033554,259.809204 97.969086,158.650482 104.000504,97.242760"
              class="id_71 id_88" stroke-opacity="1.0" stroke="#04c0ff"/>
        <path fill="none" stroke-width="1.0"
              d="M -759.280334,-64.301208 C -712.862366,-93.534241 -599.385864,-67.756798 -570.152832,-21.338818"
              class="id_75 id_85" stroke-opacity="1.0" stroke="#00e6c8"/>
        <path fill="none" stroke-width="1.0"
              d="M 186.482239,252.277512 C 173.110580,226.885254 191.141464,168.739395 216.533722,155.367737"
              class="id_76 id_82" stroke-opacity="1.0" stroke="#02dabd"/>
        <path fill="none" stroke-width="1.0"
              d="M -340.878540,-315.289032 C -342.419434,-292.384003 -379.088379,-260.337799 -401.993408,-261.878693"
              class="id_78 id_98" stroke-opacity="1.0" stroke="#02d1f0"/>
        <path fill="none" stroke-width="1.0"
              d="M 324.663788,-130.100037 C 351.523926,-89.847694 331.435638,10.821012 291.183289,37.681152"
              class="id_79 id_83" stroke-opacity="1.0" stroke="#02d1f0"/>
        <path fill="none" stroke-width="1.0"
              d="M 629.378906,92.786201 C 608.343811,125.417358 527.844421,142.811447 495.213287,121.776344"
              class="id_80 id_95" stroke-opacity="1.0" stroke="#02dabd"/>
        <path fill="none" stroke-width="1.0"
              d="M 291.183289,37.681152 C 265.659058,87.030029 153.349380,122.766998 104.000504,97.242760"
              class="id_83 id_88" stroke-opacity="1.0" stroke="#04c0ff"/>
        <path fill="none" stroke-width="1.0"
              d="M 291.183289,37.681152 C 321.229401,76.581627 307.947876,180.001511 269.047394,210.047623"
              class="id_83 id_92" stroke-opacity="1.0" stroke="#04c0ff"/>
        <path fill="none" stroke-width="1.0"
              d="M -570.152832,-21.338818 C -590.794983,9.956295 -668.700867,25.935749 -699.995972,5.293607"
              class="id_85 id_93" stroke-opacity="1.0" stroke="#00ebae"/>
        <path fill="none" stroke-width="1.0"
              d="M 118.199600,336.216187 C 123.135445,280.812927 213.644135,205.111786 269.047394,210.047623"
              class="id_87 id_92" stroke-opacity="1.0" stroke="#02d5d7"/>
        <path fill="none" stroke-width="1.0"
              d="M 104.000504,97.242760 C 78.678413,138.778839 -21.608841,163.099823 -63.144920,137.777725"
              class="id_88 id_94" stroke-opacity="1.0" stroke="#02d1f0"/>
        <path fill="none" stroke-width="1.0"
              d="M -454.581940,232.540421 C -428.125549,204.768600 -346.783234,202.795441 -319.011414,229.251831"
              class="id_90 id_99" stroke-opacity="1.0" stroke="#02d1f0"/>
    </g>
    <g id="nodes">
        <circle fill-opacity="1.0" fill="#00ebaf" r="10.0" cx="-26.157328"
                class="id_0" cy="278.53226" stroke="#000000"
                stroke-opacity="1.0" stroke-width="1.0"/>
        <circle fill-opacity="1.0" fill="#00ebaf" r="10.0" cx="266.76688"
                class="id_1" cy="348.1515" stroke="#000000" stroke-opacity="1.0"
                stroke-width="1.0"/>
        <circle fill-opacity="1.0" fill="#00ff48" r="10.0" cx="-900.8365"
                class="id_2" cy="1784.0273" stroke="#000000"
                stroke-opacity="1.0" stroke-width="1.0"/>
        <circle fill-opacity="1.0" fill="#00e2e2" r="10.0" cx="-54.82927"
                class="id_3" cy="-157.24342" stroke="#000000"
                stroke-opacity="1.0" stroke-width="1.0"/>
        <circle fill-opacity="1.0" fill="#00e2e2" r="10.0" cx="-215.77028"
                class="id_4" cy="-421.84705" stroke="#000000"
                stroke-opacity="1.0" stroke-width="1.0"/>
        <circle fill-opacity="1.0" fill="#00ebaf" r="10.0" cx="-752.9703"
                class="id_5" cy="-179.10313" stroke="#000000"
                stroke-opacity="1.0" stroke-width="1.0"/>
        <circle fill-opacity="1.0" fill="#00e2e2" r="10.0" cx="-459.16837"
                class="id_6" cy="434.02182" stroke="#000000"
                stroke-opacity="1.0" stroke-width="1.0"/>
        <circle fill-opacity="1.0" fill="#00ebaf" r="10.0" cx="-577.2371"
                class="id_7" cy="590.4659" stroke="#000000" stroke-opacity="1.0"
                stroke-width="1.0"/>
        <circle fill-opacity="1.0" fill="#00f57b" r="10.0" cx="-1164.982"
                class="id_8" cy="-69.813034" stroke="#000000"
                stroke-opacity="1.0" stroke-width="1.0"/>
        <circle fill-opacity="1.0" fill="#00ebaf" r="10.0" cx="-679.22577"
                class="id_9" cy="728.5701" stroke="#000000" stroke-opacity="1.0"
                stroke-width="1.0"/>
        <circle fill-opacity="1.0" fill="#00ff48" r="10.0" cx="-1001.5875"
                class="id_10" cy="1847.7101" stroke="#000000"
                stroke-opacity="1.0" stroke-width="1.0"/>
        <circle fill-opacity="1.0" fill="#00ebaf" r="10.0" cx="80.45832"
                class="id_11" cy="-260.91544" stroke="#000000"
                stroke-opacity="1.0" stroke-width="1.0"/>
        <circle fill-opacity="1.0" fill="#00ff48" r="10.0" cx="1852.6797"
                class="id_12" cy="753.9576" stroke="#000000"
                stroke-opacity="1.0" stroke-width="1.0"/>
        <circle fill-opacity="1.0" fill="#04c0ff" r="10.0" cx="299.59738"
                class="id_13" cy="418.88242" stroke="#000000"
                stroke-opacity="1.0" stroke-width="1.0"/>
        <circle fill-opacity="1.0" fill="#00e2e2" r="10.0" cx="-431.6498"
                class="id_14" cy="-279.0241" stroke="#000000"
                stroke-opacity="1.0" stroke-width="1.0"/>
        <circle fill-opacity="1.0" fill="#00e2e2" r="10.0" cx="324.6648"
                class="id_15" cy="-87.492805" stroke="#000000"
                stroke-opacity="1.0" stroke-width="1.0"/>
        <circle fill-opacity="1.0" fill="#00ebaf" r="10.0" cx="211.89932"
                class="id_16" cy="-260.5581" stroke="#000000"
                stroke-opacity="1.0" stroke-width="1.0"/>
        <circle fill-opacity="1.0" fill="#00ff48" r="10.0" cx="867.0655"
                class="id_17" cy="-1712.4564" stroke="#000000"
                stroke-opacity="1.0" stroke-width="1.0"/>
        <circle fill-opacity="1.0" fill="#00e2e2" r="10.0" cx="95.017715"
                class="id_18" cy="-326.0832" stroke="#000000"
                stroke-opacity="1.0" stroke-width="1.0"/>
        <circle fill-opacity="1.0" fill="#04c0ff" r="10.0" cx="-38.649925"
                class="id_19" cy="-2.8906968" stroke="#000000"
                stroke-opacity="1.0" stroke-width="1.0"/>
        <circle fill-opacity="1.0" fill="#00ff48" r="10.0" cx="56.270985"
                class="id_20" cy="1958.8365" stroke="#000000"
                stroke-opacity="1.0" stroke-width="1.0"/>
        <circle fill-opacity="1.0" fill="#04c0ff" r="10.0" cx="-378.76215"
                class="id_21" cy="-140.97774" stroke="#000000"
                stroke-opacity="1.0" stroke-width="1.0"/>
        <circle fill-opacity="1.0" fill="#00ebaf" r="10.0" cx="-587.9126"
                class="id_22" cy="-247.40335" stroke="#000000"
                stroke-opacity="1.0" stroke-width="1.0"/>
        <circle fill-opacity="1.0" fill="#00f57b" r="10.0" cx="425.47095"
                class="id_23" cy="17.838982" stroke="#000000"
                stroke-opacity="1.0" stroke-width="1.0"/>
        <circle fill-opacity="1.0" fill="#00f57b" r="10.0" cx="372.40997"
                class="id_24" cy="553.4788" stroke="#000000"
                stroke-opacity="1.0" stroke-width="1.0"/>
        <circle fill-opacity="1.0" fill="#00e2e2" r="10.0" cx="240.11569"
                class="id_25" cy="306.85757" stroke="#000000"
                stroke-opacity="1.0" stroke-width="1.0"/>
        <circle fill-opacity="1.0" fill="#00e2e2" r="10.0" cx="-420.26154"
                class="id_26" cy="7.7896633" stroke="#000000"
                stroke-opacity="1.0" stroke-width="1.0"/>
        <circle fill-opacity="1.0" fill="#00e2e2" r="10.0" cx="-33.66483"
                class="id_27" cy="-382.8839" stroke="#000000"
                stroke-opacity="1.0" stroke-width="1.0"/>
        <circle fill-opacity="1.0" fill="#00ebaf" r="10.0" cx="-1049.1796"
                class="id_28" cy="-106.79517" stroke="#000000"
                stroke-opacity="1.0" stroke-width="1.0"/>
        <circle fill-opacity="1.0" fill="#00f57b" r="10.0" cx="-750.33716"
                class="id_29" cy="823.3631" stroke="#000000"
                stroke-opacity="1.0" stroke-width="1.0"/>
        <circle fill-opacity="1.0" fill="#00e2e2" r="10.0" cx="165.64961"
                class="id_30" cy="-206.89816" stroke="#000000"
                stroke-opacity="1.0" stroke-width="1.0"/>
        <circle fill-opacity="1.0" fill="#00f57b" r="10.0" cx="841.27966"
                class="id_31" cy="1727.2241" stroke="#000000"
                stroke-opacity="1.0" stroke-width="1.0"/>
        <circle fill-opacity="1.0" fill="#00f57b" r="10.0" cx="-1489.2725"
                class="id_32" cy="-477.0747" stroke="#000000"
                stroke-opacity="1.0" stroke-width="1.0"/>
        <circle fill-opacity="1.0" fill="#04c0ff" r="10.0" cx="-468.6074"
                class="id_33" cy="-194.16211" stroke="#000000"
                stroke-opacity="1.0" stroke-width="1.0"/>
        <circle fill-opacity="1.0" fill="#00e2e2" r="10.0" cx="-400.9383"
                class="id_34" cy="-361.47736" stroke="#000000"
                stroke-opacity="1.0" stroke-width="1.0"/>
        <circle fill-opacity="1.0" fill="#00f57b" r="10.0" cx="1158.4198"
                class="id_35" cy="-876.5074" stroke="#000000"
                stroke-opacity="1.0" stroke-width="1.0"/>
        <circle fill-opacity="1.0" fill="#00ebaf" r="10.0" cx="482.95236"
                class="id_36" cy="-214.18304" stroke="#000000"
                stroke-opacity="1.0" stroke-width="1.0"/>
        <circle fill-opacity="1.0" fill="#00f57b" r="10.0" cx="-570.49817"
                class="id_37" cy="301.6513" stroke="#000000"
                stroke-opacity="1.0" stroke-width="1.0"/>
        <circle fill-opacity="1.0" fill="#00f57b" r="10.0" cx="347.68384"
                class="id_38" cy="361.65594" stroke="#000000"
                stroke-opacity="1.0" stroke-width="1.0"/>
        <circle fill-opacity="1.0" fill="#00f57b" r="10.0" cx="-314.49387"
                class="id_39" cy="107.88405" stroke="#000000"
                stroke-opacity="1.0" stroke-width="1.0"/>
        <circle fill-opacity="1.0" fill="#00e2e2" r="10.0" cx="119.482796"
                class="id_40" cy="-143.4043" stroke="#000000"
                stroke-opacity="1.0" stroke-width="1.0"/>
        <circle fill-opacity="1.0" fill="#00ebaf" r="10.0" cx="1201.0138"
                class="id_41" cy="-952.3565" stroke="#000000"
                stroke-opacity="1.0" stroke-width="1.0"/>
        <circle fill-opacity="1.0" fill="#00f57b" r="10.0" cx="456.30502"
                class="id_42" cy="-164.51273" stroke="#000000"
                stroke-opacity="1.0" stroke-width="1.0"/>
        <circle fill-opacity="1.0" fill="#00f57b" r="10.0" cx="805.75543"
                class="id_43" cy="1646.6512" stroke="#000000"
                stroke-opacity="1.0" stroke-width="1.0"/>
        <circle fill-opacity="1.0" fill="#00ebaf" r="10.0" cx="321.41788"
                class="id_44" cy="109.660805" stroke="#000000"
                stroke-opacity="1.0" stroke-width="1.0"/>
        <circle fill-opacity="1.0" fill="#00ff48" r="10.0" cx="1609.1948"
                class="id_45" cy="1058.6727" stroke="#000000"
                stroke-opacity="1.0" stroke-width="1.0"/>
        <circle fill-opacity="1.0" fill="#00f57b" r="10.0" cx="-1592.433"
                class="id_46" cy="-517.8563" stroke="#000000"
                stroke-opacity="1.0" stroke-width="1.0"/>
        <circle fill-opacity="1.0" fill="#00e2e2" r="10.0" cx="-262.32236"
                class="id_47" cy="-98.39444" stroke="#000000"
                stroke-opacity="1.0" stroke-width="1.0"/>
        <circle fill-opacity="1.0" fill="#00f57b" r="10.0" cx="-322.46735"
                class="id_48" cy="532.63727" stroke="#000000"
                stroke-opacity="1.0" stroke-width="1.0"/>
        <circle fill-opacity="1.0" fill="#00ebaf" r="10.0" cx="-47.03085"
                class="id_49" cy="-50.56538" stroke="#000000"
                stroke-opacity="1.0" stroke-width="1.0"/>
        <circle fill-opacity="1.0" fill="#00e2e2" r="10.0" cx="-893.072"
                class="id_50" cy="-121.944954" stroke="#000000"
                stroke-opacity="1.0" stroke-width="1.0"/>
        <circle fill-opacity="1.0" fill="#00ff48" r="10.0" cx="147.12724"
                class="id_51" cy="-2009.7313" stroke="#000000"
                stroke-opacity="1.0" stroke-width="1.0"/>
        <circle fill-opacity="1.0" fill="#00e2e2" r="10.0" cx="180.65657"
                class="id_52" cy="-88.43011" stroke="#000000"
                stroke-opacity="1.0" stroke-width="1.0"/>
        <circle fill-opacity="1.0" fill="#2200ff" r="10.0" cx="-235.3049"
                class="id_53" cy="19.187716" stroke="#000000"
                stroke-opacity="1.0" stroke-width="1.0"/>
        <circle fill-opacity="1.0" fill="#00e2e2" r="10.0" cx="227.33412"
                class="id_54" cy="81.0161" stroke="#000000" stroke-opacity="1.0"
                stroke-width="1.0"/>
        <circle fill-opacity="1.0" fill="#00ebaf" r="10.0" cx="1243.4884"
                class="id_55" cy="-1108.7821" stroke="#000000"
                stroke-opacity="1.0" stroke-width="1.0"/>
        <circle fill-opacity="1.0" fill="#00ebaf" r="10.0" cx="-155.53654"
                class="id_56" cy="-73.57415" stroke="#000000"
                stroke-opacity="1.0" stroke-width="1.0"/>
        <circle fill-opacity="1.0" fill="#00ebaf" r="10.0" cx="-317.6872"
                class="id_57" cy="-8.680793" stroke="#000000"
                stroke-opacity="1.0" stroke-width="1.0"/>
        <circle fill-opacity="1.0" fill="#04c0ff" r="10.0" cx="-277.5541"
                class="id_58" cy="403.66437" stroke="#000000"
                stroke-opacity="1.0" stroke-width="1.0"/>
        <circle fill-opacity="1.0" fill="#00e2e2" r="10.0" cx="-208.99954"
                class="id_59" cy="-185.16127" stroke="#000000"
                stroke-opacity="1.0" stroke-width="1.0"/>
        <circle fill-opacity="1.0" fill="#00f57b" r="10.0" cx="261.70596"
                class="id_60" cy="-322.95993" stroke="#000000"
                stroke-opacity="1.0" stroke-width="1.0"/>
        <circle fill-opacity="1.0" fill="#0e80ff" r="10.0" cx="-344.99054"
                class="id_61" cy="-148.9455" stroke="#000000"
                stroke-opacity="1.0" stroke-width="1.0"/>
        <circle fill-opacity="1.0" fill="#00ebaf" r="10.0" cx="299.59567"
                class="id_62" cy="486.43262" stroke="#000000"
                stroke-opacity="1.0" stroke-width="1.0"/>
        <circle fill-opacity="1.0" fill="#00f57b" r="10.0" cx="611.885"
                class="id_63" cy="189.90118" stroke="#000000"
                stroke-opacity="1.0" stroke-width="1.0"/>
        <circle fill-opacity="1.0" fill="#00f57b" r="10.0" cx="635.1849"
                class="id_64" cy="144.14288" stroke="#000000"
                stroke-opacity="1.0" stroke-width="1.0"/>
        <circle fill-opacity="1.0" fill="#00f57b" r="10.0" cx="395.37244"
                class="id_65" cy="280.1127" stroke="#000000"
                stroke-opacity="1.0" stroke-width="1.0"/>
        <circle fill-opacity="1.0" fill="#00e2e2" r="10.0" cx="-569.70703"
                class="id_66" cy="-185.32402" stroke="#000000"
                stroke-opacity="1.0" stroke-width="1.0"/>
        <circle fill-opacity="1.0" fill="#00ebaf" r="10.0" cx="-284.1955"
                class="id_67" cy="-316.53342" stroke="#000000"
                stroke-opacity="1.0" stroke-width="1.0"/>
        <circle fill-opacity="1.0" fill="#00ff48" r="10.0" cx="-1815.7913"
                class="id_68" cy="185.91937" stroke="#000000"
                stroke-opacity="1.0" stroke-width="1.0"/>
        <circle fill-opacity="1.0" fill="#00ff48" r="10.0" cx="-1802.404"
                class="id_69" cy="1004.9273" stroke="#000000"
                stroke-opacity="1.0" stroke-width="1.0"/>
        <circle fill-opacity="1.0" fill="#00e2e2" r="10.0" cx="-61.067986"
                class="id_70" cy="405.04456" stroke="#000000"
                stroke-opacity="1.0" stroke-width="1.0"/>
        <circle fill-opacity="1.0" fill="#04c0ff" r="10.0" cx="242.44128"
                class="id_71" cy="265.8406" stroke="#000000"
                stroke-opacity="1.0" stroke-width="1.0"/>
        <circle fill-opacity="1.0" fill="#00ebaf" r="10.0" cx="182.90654"
                class="id_72" cy="-376.68555" stroke="#000000"
                stroke-opacity="1.0" stroke-width="1.0"/>
        <circle fill-opacity="1.0" fill="#00e2e2" r="10.0" cx="73.93928"
                class="id_73" cy="366.68985" stroke="#000000"
                stroke-opacity="1.0" stroke-width="1.0"/>
        <circle fill-opacity="1.0" fill="#00ff48" r="10.0" cx="1213.7076"
                class="id_74" cy="1396.5876" stroke="#000000"
                stroke-opacity="1.0" stroke-width="1.0"/>
        <circle fill-opacity="1.0" fill="#00ebaf" r="10.0" cx="-759.28033"
                class="id_75" cy="-64.30121" stroke="#000000"
                stroke-opacity="1.0" stroke-width="1.0"/>
        <circle fill-opacity="1.0" fill="#00f57b" r="10.0" cx="186.48224"
                class="id_76" cy="252.27751" stroke="#000000"
                stroke-opacity="1.0" stroke-width="1.0"/>
        <circle fill-opacity="1.0" fill="#00ff48" r="10.0" cx="1999.0643"
                class="id_77" cy="-270.4583" stroke="#000000"
                stroke-opacity="1.0" stroke-width="1.0"/>
        <circle fill-opacity="1.0" fill="#04c0ff" r="10.0" cx="-340.87854"
                class="id_78" cy="-315.28903" stroke="#000000"
                stroke-opacity="1.0" stroke-width="1.0"/>
        <circle fill-opacity="1.0" fill="#00e2e2" r="10.0" cx="324.6638"
                class="id_79" cy="-130.10004" stroke="#000000"
                stroke-opacity="1.0" stroke-width="1.0"/>
        <circle fill-opacity="1.0" fill="#00f57b" r="10.0" cx="629.3789"
                class="id_80" cy="92.7862" stroke="#000000" stroke-opacity="1.0"
                stroke-width="1.0"/>
        <circle fill-opacity="1.0" fill="#00f57b" r="10.0" cx="1299.6494"
                class="id_81" cy="-1176.3138" stroke="#000000"
                stroke-opacity="1.0" stroke-width="1.0"/>
        <circle fill-opacity="1.0" fill="#04c0ff" r="10.0" cx="216.53372"
                class="id_82" cy="155.36774" stroke="#000000"
                stroke-opacity="1.0" stroke-width="1.0"/>
        <circle fill-opacity="1.0" fill="#04c0ff" r="10.0" cx="291.1833"
                class="id_83" cy="37.681152" stroke="#000000"
                stroke-opacity="1.0" stroke-width="1.0"/>
        <circle fill-opacity="1.0" fill="#00ff48" r="10.0" cx="-448.9869"
                class="id_84" cy="-1808.8523" stroke="#000000"
                stroke-opacity="1.0" stroke-width="1.0"/>
        <circle fill-opacity="1.0" fill="#00e2e2" r="10.0" cx="-570.15283"
                class="id_85" cy="-21.338818" stroke="#000000"
                stroke-opacity="1.0" stroke-width="1.0"/>
        <circle fill-opacity="1.0" fill="#00f57b" r="10.0" cx="592.6187"
                class="id_86" cy="-290.80783" stroke="#000000"
                stroke-opacity="1.0" stroke-width="1.0"/>
        <circle fill-opacity="1.0" fill="#00ebaf" r="10.0" cx="118.1996"
                class="id_87" cy="336.2162" stroke="#000000"
                stroke-opacity="1.0" stroke-width="1.0"/>
        <circle fill-opacity="1.0" fill="#04c0ff" r="10.0" cx="104.0005"
                class="id_88" cy="97.24276" stroke="#000000"
                stroke-opacity="1.0" stroke-width="1.0"/>
        <circle fill-opacity="1.0" fill="#00ebaf" r="10.0" cx="1162.8766"
                class="id_89" cy="-1015.96185" stroke="#000000"
                stroke-opacity="1.0" stroke-width="1.0"/>
        <circle fill-opacity="1.0" fill="#04c0ff" r="10.0" cx="-454.58194"
                class="id_90" cy="232.54042" stroke="#000000"
                stroke-opacity="1.0" stroke-width="1.0"/>
        <circle fill-opacity="1.0" fill="#00ebaf" r="10.0" cx="-331.55124"
                class="id_91" cy="-478.84088" stroke="#000000"
                stroke-opacity="1.0" stroke-width="1.0"/>
        <circle fill-opacity="1.0" fill="#04c0ff" r="10.0" cx="269.0474"
                class="id_92" cy="210.04762" stroke="#000000"
                stroke-opacity="1.0" stroke-width="1.0"/>
        <circle fill-opacity="1.0" fill="#00f57b" r="10.0" cx="-699.996"
                class="id_93" cy="5.2936068" stroke="#000000"
                stroke-opacity="1.0" stroke-width="1.0"/>
        <circle fill-opacity="1.0" fill="#00e2e2" r="10.0" cx="-63.14492"
                class="id_94" cy="137.77773" stroke="#000000"
                stroke-opacity="1.0" stroke-width="1.0"/>
        <circle fill-opacity="1.0" fill="#04c0ff" r="10.0" cx="495.2133"
                class="id_95" cy="121.776344" stroke="#000000"
                stroke-opacity="1.0" stroke-width="1.0"/>
        <circle fill-opacity="1.0" fill="#00ff48" r="10.0" cx="1811.8743"
                class="id_96" cy="442.51068" stroke="#000000"
                stroke-opacity="1.0" stroke-width="1.0"/>
        <circle fill-opacity="1.0" fill="#00ff48" r="10.0" cx="450.27484"
                class="id_97" cy="-1817.241" stroke="#000000"
                stroke-opacity="1.0" stroke-width="1.0"/>
        <circle fill-opacity="1.0" fill="#00e2e2" r="10.0" cx="-401.9934"
                class="id_98" cy="-261.8787" stroke="#000000"
                stroke-opacity="1.0" stroke-width="1.0"/>
        <circle fill-opacity="1.0" fill="#00e2e2" r="10.0" cx="-319.0114"
                class="id_99" cy="229.25183" stroke="#000000"
                stroke-opacity="1.0" stroke-width="1.0"/>
    </g>
</svg>